<?xml version="1.0" standalone="no"?>
  <!DOCTYPE svg PUBLIC "-//W3C//DTD SVG 1.1//EN" "http://www.w3.org/Graphics/SVG/1.1/DTD/svg11.dtd" >
  <svg>
  <metadata>
  Created by font-carrier
  </metadata>
  <defs>
  <font id="Muller-Medium" horiz-adv-x="1305" vert-adv-y="1305" >
    <font-face
      
      font-family="Muller Medium"
      
      font-weight="400"
      
      font-stretch="normal"
      
      units-per-em="1000"
      
      ascent="767"
      
      descent="-233"
      
    />
      <missing-glyph />

      

      
      <glyph glyph-name="uni41" unicode="&#x41;" d="M426 700L301 700L5 0L126 0L188 151L539 151L602 0L722 0ZM228 251L350 550C355 561 359 571 364 587C368 571 372 561 377 550L500 251Z"  horiz-adv-x="728" vert-adv-y="1000"  />

      
      <glyph glyph-name="unic1" unicode="&#xc1;" d="M502 915L378 915L287 767L396 767ZM426 700L301 700L5 0L126 0L188 151L539 151L602 0L722 0ZM228 251L350 550C355 561 359 571 364 587C368 571 372 561 377 550L500 251Z"  horiz-adv-x="728" vert-adv-y="1000"  />

      
      <glyph glyph-name="uni0102" unicode="&#x0102;" d="M510 803L510 895C459 862 414 852 363 852C311 852 266 862 215 895L215 803C259 772 307 760 363 760C418 760 466 772 510 803ZM426 700L301 700L5 0L126 0L188 151L539 151L602 0L722 0ZM228 251L350 550C355 561 359 571 364 587C368 571 372 561 377 550L500 251Z"  horiz-adv-x="728" vert-adv-y="1000"  />

      
      <glyph glyph-name="unic2" unicode="&#xc2;" d="M365 841L431 765L541 765L413 915L317 915L189 765L299 765ZM426 700L301 700L5 0L126 0L188 151L539 151L602 0L722 0ZM228 251L350 550C355 561 359 571 364 587C368 571 372 561 377 550L500 251Z"  horiz-adv-x="728" vert-adv-y="1000"  />

      
      <glyph glyph-name="unic4" unicode="&#xc4;" d="M258 771C293 771 322 800 322 835C322 870 293 899 258 899C223 899 194 870 194 835C194 800 223 771 258 771ZM465 771C500 771 529 800 529 835C529 870 500 899 465 899C430 899 401 870 401 835C401 800 430 771 465 771ZM426 700L301 700L5 0L126 0L188 151L539 151L602 0L722 0ZM228 251L350 550C355 561 359 571 364 587C368 571 372 561 377 550L500 251Z"  horiz-adv-x="728" vert-adv-y="1000"  />

      
      <glyph glyph-name="unic0" unicode="&#xc0;" d="M439 767L348 915L224 915L330 767ZM426 700L301 700L5 0L126 0L188 151L539 151L602 0L722 0ZM228 251L350 550C355 561 359 571 364 587C368 571 372 561 377 550L500 251Z"  horiz-adv-x="728" vert-adv-y="1000"  />

      
      <glyph glyph-name="uni0100" unicode="&#x0100;" d="M519 866L207 866L207 776L519 776ZM426 700L301 700L5 0L126 0L188 151L539 151L602 0L722 0ZM228 251L350 550C355 561 359 571 364 587C368 571 372 561 377 550L500 251Z"  horiz-adv-x="728" vert-adv-y="1000"  />

      
      <glyph glyph-name="uni0104" unicode="&#x0104;" d="M679-150C654-150 639-136 640-113C639-82 668-37 719-1L722 0L426 700L301 700L5 0L126 0L188 151L539 151L606-11C563-54 542-100 542-139C541-191 577-233 647-233C677-233 706-226 730-211L730-133C715-143 696-150 679-150ZM228 251L350 550C355 561 359 572 363 590C368 572 372 561 377 550L500 251Z"  horiz-adv-x="728" vert-adv-y="1000"  />

      
      <glyph glyph-name="unic5" unicode="&#xc5;" d="M362 740C425 740 482 783 482 855C482 926 425 969 362 969C299 969 242 926 242 855C242 783 299 740 362 740ZM362 904C389 904 411 884 411 855C411 824 389 805 362 805C335 805 313 824 313 855C313 884 335 904 362 904ZM426 700L301 700L5 0L126 0L188 151L539 151L602 0L722 0ZM228 251L350 550C355 561 359 571 364 587C368 571 372 561 377 550L500 251Z"  horiz-adv-x="728" vert-adv-y="1000"  />

      
      <glyph glyph-name="unic3" unicode="&#xc3;" d="M275 760C271 779 279 797 301 797C332 797 384 755 446 755C503 755 548 800 534 877L450 877C453 858 447 840 423 840C392 840 339 883 277 883C221 883 176 837 191 760ZM426 700L301 700L5 0L126 0L188 151L539 151L602 0L722 0ZM228 251L350 550C355 561 359 571 364 587C368 571 372 561 377 550L500 251Z"  horiz-adv-x="728" vert-adv-y="1000"  />

      
      <glyph glyph-name="unic6" unicode="&#xc6;" d="M-16 0L106 0L210 154L496 154L496 0L957 0L957 104L610 104L610 301L921 301L921 405L610 405L610 596L951 596L951 700L453 700ZM271 251L496 583L496 251Z"  horiz-adv-x="1004" vert-adv-y="1000"  />

      
      <glyph glyph-name="uni42" unicode="&#x42;" d="M84 0L382 0C493 0 648 35 648 194C648 303 574 351 510 369C569 387 620 438 620 523C620 642 526 700 380 700L84 700ZM199 409L199 601L370 601C454 601 505 575 505 505C505 437 452 409 386 409ZM198 100L198 313L388 313C452 313 533 299 533 206C533 109 450 100 372 100Z"  horiz-adv-x="689" vert-adv-y="1000"  />

      
      <glyph glyph-name="uni43" unicode="&#x43;" d="M413-13C488-13 557 4 616 33L616 146C571 111 505 92 433 92C299 92 157 172 158 344C158 529 297 608 432 608C497 608 563 590 611 556L611 667C552 697 483 713 412 713C228 713 42 593 41 344C40 105 232-13 413-13Z"  horiz-adv-x="654" vert-adv-y="1000"  />

      
      <glyph glyph-name="uni0106" unicode="&#x0106;" d="M323 767L432 767L538 915L414 915ZM413-13C488-13 557 4 616 33L616 146C571 111 505 92 433 92C299 92 157 172 158 344C158 529 297 608 432 608C497 608 563 590 611 556L611 667C552 697 483 713 412 713C228 713 42 593 41 344C40 105 232-13 413-13Z"  horiz-adv-x="654" vert-adv-y="1000"  />

      
      <glyph glyph-name="uni010C" unicode="&#x010C;" d="M353 768L449 768L580 918L470 918L401 839L332 918L222 918ZM413-13C488-13 557 4 616 33L616 146C571 111 505 92 433 92C299 92 157 172 158 344C158 529 297 608 432 608C497 608 563 590 611 556L611 667C552 697 483 713 412 713C228 713 42 593 41 344C40 105 232-13 413-13Z"  horiz-adv-x="654" vert-adv-y="1000"  />

      
      <glyph glyph-name="unic7" unicode="&#xc7;" d="M408-233C482-233 546-203 546-136C545-84 510-54 446-53L457-11C515-6 569 10 616 33L616 146C571 111 505 92 433 92C299 92 157 172 158 344C158 529 297 608 432 608C497 608 563 590 611 556L611 667C552 697 483 713 412 713C228 713 42 593 41 344C40 122 206 4 375-11L354-101C405-93 461-99 461-126C461-147 436-159 393-159C361-159 330-151 308-138L308-214C338-227 369-233 408-233Z"  horiz-adv-x="654" vert-adv-y="1000"  />

      
      <glyph glyph-name="uni010A" unicode="&#x010A;" d="M400 761C438 761 470 783 470 830C470 875 438 897 400 897C363 897 330 875 330 830C330 783 363 761 400 761ZM413-13C488-13 557 4 616 33L616 146C571 111 505 92 433 92C299 92 157 172 158 344C158 529 297 608 432 608C497 608 563 590 611 556L611 667C552 697 483 713 412 713C228 713 42 593 41 344C40 105 232-13 413-13Z"  horiz-adv-x="654" vert-adv-y="1000"  />

      
      <glyph glyph-name="uni44" unicode="&#x44;" d="M84 0L329 0C577 0 698 147 698 350C698 553 577 700 329 700L84 700ZM199 104L199 596L329 596C495 596 581 507 581 350C581 193 495 104 329 104Z"  horiz-adv-x="740" vert-adv-y="1000"  />

      
      <glyph glyph-name="unid0" unicode="&#xd0;" d="M92 0L337 0C585 0 706 147 706 350C706 553 585 700 337 700L92 700L92 395L14 395L14 303L92 303ZM207 104L207 303L392 303L392 395L207 395L207 596L337 596C503 596 590 507 590 350C590 193 503 104 337 104Z"  horiz-adv-x="748" vert-adv-y="1000"  />

      
      <glyph glyph-name="uni010E" unicode="&#x010E;" d="M294 768L390 768L521 918L411 918L342 839L273 918L163 918ZM84 0L329 0C577 0 698 147 698 350C698 553 577 700 329 700L84 700ZM199 104L199 596L329 596C495 596 581 507 581 350C581 193 495 104 329 104Z"  horiz-adv-x="740" vert-adv-y="1000"  />

      
      <glyph glyph-name="uni0110" unicode="&#x0110;" d="M92 0L337 0C585 0 706 147 706 350C706 553 585 700 337 700L92 700L92 395L14 395L14 303L92 303ZM207 104L207 303L392 303L392 395L207 395L207 596L337 596C503 596 590 507 590 350C590 193 503 104 337 104Z"  horiz-adv-x="748" vert-adv-y="1000"  />

      
      <glyph glyph-name="uni45" unicode="&#x45;" d="M84 0L572 0L572 104L199 104L199 301L536 301L536 405L199 405L199 596L566 596L566 700L84 700Z"  horiz-adv-x="619" vert-adv-y="1000"  />

      
      <glyph glyph-name="unic9" unicode="&#xc9;" d="M256 767L365 767L471 915L347 915ZM84 0L572 0L572 104L199 104L199 301L536 301L536 405L199 405L199 596L566 596L566 700L84 700Z"  horiz-adv-x="619" vert-adv-y="1000"  />

      
      <glyph glyph-name="uni011A" unicode="&#x011A;" d="M286 768L382 768L513 918L403 918L334 839L265 918L155 918ZM84 0L572 0L572 104L199 104L199 301L536 301L536 405L199 405L199 596L566 596L566 700L84 700Z"  horiz-adv-x="619" vert-adv-y="1000"  />

      
      <glyph glyph-name="unica" unicode="&#xca;" d="M158 765L268 765L334 841L400 765L510 765L382 915L286 915ZM84 0L572 0L572 104L199 104L199 301L536 301L536 405L199 405L199 596L566 596L566 700L84 700Z"  horiz-adv-x="619" vert-adv-y="1000"  />

      
      <glyph glyph-name="unicb" unicode="&#xcb;" d="M228 771C263 771 292 800 292 835C292 870 263 899 228 899C193 899 164 870 164 835C164 800 193 771 228 771ZM435 771C470 771 499 800 499 835C499 870 470 899 435 899C400 899 371 870 371 835C371 800 400 771 435 771ZM84 0L572 0L572 104L199 104L199 301L536 301L536 405L199 405L199 596L566 596L566 700L84 700Z"  horiz-adv-x="619" vert-adv-y="1000"  />

      
      <glyph glyph-name="uni0116" unicode="&#x0116;" d="M333 761C371 761 403 783 403 830C403 875 371 897 333 897C296 897 263 875 263 830C263 783 296 761 333 761ZM84 0L572 0L572 104L199 104L199 301L536 301L536 405L199 405L199 596L566 596L566 700L84 700Z"  horiz-adv-x="619" vert-adv-y="1000"  />

      
      <glyph glyph-name="unic8" unicode="&#xc8;" d="M300 767L409 767L318 915L194 915ZM84 0L572 0L572 104L199 104L199 301L536 301L536 405L199 405L199 596L566 596L566 700L84 700Z"  horiz-adv-x="619" vert-adv-y="1000"  />

      
      <glyph glyph-name="uni0112" unicode="&#x0112;" d="M176 776L488 776L488 866L176 866ZM84 0L572 0L572 104L199 104L199 301L536 301L536 405L199 405L199 596L566 596L566 700L84 700Z"  horiz-adv-x="619" vert-adv-y="1000"  />

      
      <glyph glyph-name="uni0118" unicode="&#x0118;" d="M498-234C524-234 550-228 572-216L572-139C559-146 543-150 530-151C504-150 489-137 490-113C489-82 519-36 572 0L572 104L199 104L199 301L536 301L536 405L199 405L199 596L566 596L566 700L84 700L84 0L473 0C419-41 392-94 392-140C392-192 427-234 498-234Z"  horiz-adv-x="619" vert-adv-y="1000"  />

      
      <glyph glyph-name="uni46" unicode="&#x46;" d="M84 0L199 0L199 284L539 284L539 390L199 390L199 595L568 595L568 700L84 700Z"  horiz-adv-x="604" vert-adv-y="1000"  />

      
      <glyph glyph-name="uni47" unicode="&#x47;" d="M424-13C501-13 580 4 647 34L647 376L536 376L536 111C508 98 470 91 431 91C304 91 158 150 158 350C158 533 297 608 434 608C506 608 577 590 630 556L630 667C567 697 492 713 418 713C229 713 42 597 42 350C42 89 230-13 424-13Z"  horiz-adv-x="703" vert-adv-y="1000"  />

      
      <glyph glyph-name="uni011E" unicode="&#x011E;" d="M400 760C455 760 503 772 547 803L547 895C496 862 451 852 400 852C348 852 303 862 252 895L252 803C296 772 344 760 400 760ZM424-13C501-13 580 4 647 34L647 376L536 376L536 111C508 98 470 91 431 91C304 91 158 150 158 350C158 533 297 608 434 608C506 608 577 590 630 556L630 667C567 697 492 713 418 713C229 713 42 597 42 350C42 89 230-13 424-13Z"  horiz-adv-x="703" vert-adv-y="1000"  />

      
      <glyph glyph-name="uni0122" unicode="&#x0122;" d="M424-13C501-13 580 4 647 34L647 376L536 376L536 111C508 98 470 91 431 91C304 91 158 150 158 350C158 533 297 608 434 608C506 608 577 590 630 556L630 667C567 697 492 713 418 713C229 713 42 597 42 350C42 89 230-13 424-13ZM339-256L428-256L469-57L367-57Z"  horiz-adv-x="703" vert-adv-y="1000"  />

      
      <glyph glyph-name="uni0120" unicode="&#x0120;" d="M400 761C438 761 470 783 470 830C470 875 438 897 400 897C363 897 330 875 330 830C330 783 363 761 400 761ZM424-13C501-13 580 4 647 34L647 376L536 376L536 111C508 98 470 91 431 91C304 91 158 150 158 350C158 533 297 608 434 608C506 608 577 590 630 556L630 667C567 697 492 713 418 713C229 713 42 597 42 350C42 89 230-13 424-13Z"  horiz-adv-x="703" vert-adv-y="1000"  />

      
      <glyph glyph-name="uni48" unicode="&#x48;" d="M84 0L199 0L199 298L567 298L567 0L681 0L681 700L567 700L567 403L199 403L199 700L84 700Z"  horiz-adv-x="766" vert-adv-y="1000"  />

      
      <glyph glyph-name="uni0126" unicode="&#x0126;" d="M89 0L203 0L203 301L572 301L572 0L686 0L686 500L757 500L757 582L686 582L686 700L572 700L572 582L203 582L203 700L89 700L89 582L18 582L18 500L89 500ZM203 400L203 500L572 500L572 400Z"  horiz-adv-x="775" vert-adv-y="1000"  />

      
      <glyph glyph-name="uni49" unicode="&#x49;" d="M84 0L199 0L199 700L84 700Z"  horiz-adv-x="283" vert-adv-y="1000"  />

      
      <glyph glyph-name="uni0132" unicode="&#x0132;" d="M84 0L199 0L199 700L84 700ZM480-12C611-12 719 49 719 204L719 700L408 700L408 595L605 595L605 214C605 123 539 96 455 96C398 96 341 111 299 138L299 28C344 4 410-12 480-12Z"  horiz-adv-x="797" vert-adv-y="1000"  />

      
      <glyph glyph-name="unicd" unicode="&#xcd;" d="M66 767L175 767L281 915L157 915ZM84 0L199 0L199 700L84 700Z"  horiz-adv-x="283" vert-adv-y="1000"  />

      
      <glyph glyph-name="unice" unicode="&#xce;" d="M-32 765L78 765L144 841L210 765L320 765L192 915L96 915ZM84 0L199 0L199 700L84 700Z"  horiz-adv-x="283" vert-adv-y="1000"  />

      
      <glyph glyph-name="unicf" unicode="&#xcf;" d="M38 771C73 771 102 800 102 835C102 870 73 899 38 899C3 899-26 870-26 835C-26 800 3 771 38 771ZM245 771C280 771 309 800 309 835C309 870 280 899 245 899C210 899 181 870 181 835C181 800 210 771 245 771ZM84 0L199 0L199 700L84 700Z"  horiz-adv-x="283" vert-adv-y="1000"  />

      
      <glyph glyph-name="uni0130" unicode="&#x0130;" d="M143 761C181 761 213 783 213 830C213 875 181 897 143 897C106 897 73 875 73 830C73 783 106 761 143 761ZM84 0L199 0L199 700L84 700Z"  horiz-adv-x="283" vert-adv-y="1000"  />

      
      <glyph glyph-name="unicc" unicode="&#xcc;" d="M110 767L219 767L128 915L4 915ZM84 0L199 0L199 700L84 700Z"  horiz-adv-x="283" vert-adv-y="1000"  />

      
      <glyph glyph-name="uni012A" unicode="&#x012A;" d="M-14 776L298 776L298 866L-14 866ZM84 0L199 0L199 700L84 700Z"  horiz-adv-x="283" vert-adv-y="1000"  />

      
      <glyph glyph-name="uni012E" unicode="&#x012E;" d="M166-151C141-150 126-137 127-113C126-86 143-50 199 0L199 700L84 700L84-17C47-57 29-100 28-140C28-192 64-234 134-234C164-234 193-227 217-211L217-134C202-144 183-150 166-151Z"  horiz-adv-x="283" vert-adv-y="1000"  />

      
      <glyph glyph-name="uni4a" unicode="&#x4a;" d="M197-12C328-12 436 49 436 204L436 700L125 700L125 595L322 595L322 214C322 123 256 96 172 96C115 96 58 111 16 138L16 28C61 4 127-12 197-12Z"  horiz-adv-x="515" vert-adv-y="1000"  />

      
      <glyph glyph-name="uni4b" unicode="&#x4b;" d="M84 0L199 0L199 303L310 303L549 0L678 0L402 362L660 700L532 700L308 408L199 408L199 700L84 700Z"  horiz-adv-x="677" vert-adv-y="1000"  />

      
      <glyph glyph-name="uni0136" unicode="&#x0136;" d="M84 0L199 0L199 303L310 303L549 0L678 0L402 362L660 700L532 700L308 408L199 408L199 700L84 700ZM284-246L374-246L415-47L312-47Z"  horiz-adv-x="677" vert-adv-y="1000"  />

      
      <glyph glyph-name="uni4c" unicode="&#x4c;" d="M84 0L566 0L566 106L199 106L199 700L84 700Z"  horiz-adv-x="581" vert-adv-y="1000"  />

      
      <glyph glyph-name="uni0139" unicode="&#x0139;" d="M68 767L177 767L283 915L159 915ZM84 0L566 0L566 106L199 106L199 700L84 700Z"  horiz-adv-x="581" vert-adv-y="1000"  />

      
      <glyph glyph-name="uni013D" unicode="&#x013D;" d="M84 0L566 0L566 106L199 106L199 700L84 700ZM357 508L442 508L472 700L374 700Z"  horiz-adv-x="582" vert-adv-y="1000"  />

      
      <glyph glyph-name="uni013B" unicode="&#x013B;" d="M84 0L566 0L566 106L199 106L199 700L84 700ZM250-246L340-246L381-47L278-47Z"  horiz-adv-x="581" vert-adv-y="1000"  />

      
      <glyph glyph-name="uni013F" unicode="&#x013F;" d="M84 0L566 0L566 106L199 106L199 700L84 700ZM378 305C413 305 443 325 443 367C443 410 413 430 378 430C344 430 313 410 313 367C313 325 344 305 378 305Z"  horiz-adv-x="587" vert-adv-y="1000"  />

      
      <glyph glyph-name="uni0141" unicode="&#x0141;" d="M99 0L581 0L581 106L214 106L214 302L407 381L407 475L214 396L214 700L99 700L99 354L19 321L19 227L99 260Z"  horiz-adv-x="596" vert-adv-y="1000"  />

      
      <glyph glyph-name="uni4d" unicode="&#x4d;" d="M84 0L199 0L199 491L419 158L487 158L708 490L708 0L822 0L822 700L720 700L453 299L187 700L84 700Z"  horiz-adv-x="907" vert-adv-y="1000"  />

      
      <glyph glyph-name="uni4e" unicode="&#x4e;" d="M84 0L199 0L199 436C199 461 198 488 197 512L574 0L681 0L681 700L567 700L567 265C567 239 567 212 568 188L191 700L84 700Z"  horiz-adv-x="766" vert-adv-y="1000"  />

      
      <glyph glyph-name="uni0143" unicode="&#x0143;" d="M307 767L416 767L522 915L398 915ZM84 0L199 0L199 436C199 461 198 488 197 512L574 0L681 0L681 700L567 700L567 265C567 239 567 212 568 188L191 700L84 700Z"  horiz-adv-x="766" vert-adv-y="1000"  />

      
      <glyph glyph-name="uni0147" unicode="&#x0147;" d="M337 768L433 768L564 918L454 918L385 839L316 918L206 918ZM84 0L199 0L199 436C199 461 198 488 197 512L574 0L681 0L681 700L567 700L567 265C567 239 567 212 568 188L191 700L84 700Z"  horiz-adv-x="766" vert-adv-y="1000"  />

      
      <glyph glyph-name="uni0145" unicode="&#x0145;" d="M84 0L199 0L199 436C199 461 198 488 197 512L574 0L681 0L681 700L567 700L567 265C567 239 567 212 568 188L191 700L84 700ZM308-246L398-246L439-47L336-47Z"  horiz-adv-x="766" vert-adv-y="1000"  />

      
      <glyph glyph-name="uni014A" unicode="&#x014A;" d="M525-230C615-230 681-177 681-64L681 700L567 700L567 265C567 239 567 212 568 188L191 700L84 700L84 0L199 0L199 436C199 461 198 488 197 512L567 10L567-53C567-104 541-127 495-127C480-127 464-124 451-120L451-219C476-226 501-230 525-230Z"  horiz-adv-x="766" vert-adv-y="1000"  />

      
      <glyph glyph-name="unid1" unicode="&#xd1;" d="M466 755C523 755 568 800 554 877L470 877C473 858 467 840 443 840C412 840 359 883 297 883C241 883 196 837 211 760L295 760C291 779 299 797 321 797C352 797 404 755 466 755ZM84 0L199 0L199 436C199 461 198 488 197 512L574 0L681 0L681 700L567 700L567 265C567 239 567 212 568 188L191 700L84 700Z"  horiz-adv-x="766" vert-adv-y="1000"  />

      
      <glyph glyph-name="uni4f" unicode="&#x4f;" d="M410-13C656-13 778 165 778 350C778 535 656 713 410 713C163 713 41 535 41 350C41 165 163-13 410-13ZM410 94C240 94 157 216 157 350C157 484 240 606 410 606C579 606 662 484 662 350C662 216 579 94 410 94Z"  horiz-adv-x="819" vert-adv-y="1000"  />

      
      <glyph glyph-name="unid3" unicode="&#xd3;" d="M333 767L442 767L548 915L424 915ZM410-13C656-13 778 165 778 350C778 535 656 713 410 713C163 713 41 535 41 350C41 165 163-13 410-13ZM410 94C240 94 157 216 157 350C157 484 240 606 410 606C579 606 662 484 662 350C662 216 579 94 410 94Z"  horiz-adv-x="819" vert-adv-y="1000"  />

      
      <glyph glyph-name="unid4" unicode="&#xd4;" d="M235 765L345 765L411 841L477 765L587 765L459 915L363 915ZM410-13C656-13 778 165 778 350C778 535 656 713 410 713C163 713 41 535 41 350C41 165 163-13 410-13ZM410 94C240 94 157 216 157 350C157 484 240 606 410 606C579 606 662 484 662 350C662 216 579 94 410 94Z"  horiz-adv-x="819" vert-adv-y="1000"  />

      
      <glyph glyph-name="unid6" unicode="&#xd6;" d="M305 771C340 771 369 800 369 835C369 870 340 899 305 899C270 899 241 870 241 835C241 800 270 771 305 771ZM512 771C548 771 576 800 576 835C576 870 548 899 512 899C477 899 448 870 448 835C448 800 477 771 512 771ZM410-13C656-13 778 165 778 350C778 535 656 713 410 713C163 713 41 535 41 350C41 165 163-13 410-13ZM410 94C240 94 157 216 157 350C157 484 240 606 410 606C579 606 662 484 662 350C662 216 579 94 410 94Z"  horiz-adv-x="819" vert-adv-y="1000"  />

      
      <glyph glyph-name="unid2" unicode="&#xd2;" d="M377 767L486 767L395 915L271 915ZM410-13C656-13 778 165 778 350C778 535 656 713 410 713C163 713 41 535 41 350C41 165 163-13 410-13ZM410 94C240 94 157 216 157 350C157 484 240 606 410 606C579 606 662 484 662 350C662 216 579 94 410 94Z"  horiz-adv-x="819" vert-adv-y="1000"  />

      
      <glyph glyph-name="uni0150" unicode="&#x0150;" d="M268 770L373 770L450 920L339 920ZM435 770L540 770L617 920L505 920ZM410-13C656-13 778 165 778 350C778 535 656 713 410 713C163 713 41 535 41 350C41 165 163-13 410-13ZM410 94C240 94 157 216 157 350C157 484 240 606 410 606C579 606 662 484 662 350C662 216 579 94 410 94Z"  horiz-adv-x="819" vert-adv-y="1000"  />

      
      <glyph glyph-name="uni014C" unicode="&#x014C;" d="M254 776L566 776L566 866L254 866ZM410-13C656-13 778 165 778 350C778 535 656 713 410 713C163 713 41 535 41 350C41 165 163-13 410-13ZM410 94C240 94 157 216 157 350C157 484 240 606 410 606C579 606 662 484 662 350C662 216 579 94 410 94Z"  horiz-adv-x="819" vert-adv-y="1000"  />

      
      <glyph glyph-name="unid8" unicode="&#xd8;" d="M75-48L164-48L221 31C272 3 335-13 410-13C656-13 778 165 778 350C778 457 737 562 655 631L740 748L651 748L595 671C544 697 482 713 410 713C163 713 41 535 41 350C41 244 81 140 161 72ZM228 164C181 211 157 280 157 350C157 484 240 606 410 606C456 606 496 596 529 580ZM410 94C361 94 320 104 286 121L588 539C638 491 662 422 662 350C662 216 579 94 410 94Z"  horiz-adv-x="819" vert-adv-y="1000"  />

      
      <glyph glyph-name="unid5" unicode="&#xd5;" d="M493 755C550 755 595 800 581 877L497 877C500 858 494 840 470 840C439 840 386 883 324 883C268 883 223 837 238 760L322 760C318 779 326 797 348 797C379 797 431 755 493 755ZM410-13C656-13 778 165 778 350C778 535 656 713 410 713C163 713 41 535 41 350C41 165 163-13 410-13ZM410 94C240 94 157 216 157 350C157 484 240 606 410 606C579 606 662 484 662 350C662 216 579 94 410 94Z"  horiz-adv-x="819" vert-adv-y="1000"  />

      
      <glyph glyph-name="uni0152" unicode="&#x0152;" d="M410-13C461-13 498-9 531 0L990 0L990 104L644 104L644 301L954 301L954 405L644 405L644 596L984 596L984 700L531 700C498 709 461 713 410 713C163 713 41 535 41 350C41 165 163-13 410-13ZM416 93C258 93 159 202 159 350C159 498 258 607 416 607C463 607 498 601 531 590L531 110C498 99 463 93 416 93Z"  horiz-adv-x="1038" vert-adv-y="1000"  />

      
      <glyph glyph-name="uni50" unicode="&#x50;" d="M84 0L199 0L199 240L335 240C500 240 634 292 634 470C634 648 500 700 335 700L84 700ZM199 344L199 596L340 596C437 596 518 572 518 470C518 368 437 344 340 344Z"  horiz-adv-x="663" vert-adv-y="1000"  />

      
      <glyph glyph-name="unide" unicode="&#xde;" d="M84 0L199 0L199 120L335 120C500 120 634 172 634 350C634 528 500 580 335 580L199 580L199 700L84 700ZM199 224L199 476L340 476C437 476 518 452 518 350C518 248 437 224 340 224Z"  horiz-adv-x="661" vert-adv-y="1000"  />

      
      <glyph glyph-name="uni51" unicode="&#x51;" d="M703-61L778 11L687 101C748 168 778 258 778 350C778 535 656 713 410 713C163 713 41 535 41 350C41 165 163-13 410-13C488-13 553 5 606 36ZM410 94C240 94 157 216 157 350C157 484 240 607 410 607C579 607 662 484 662 350C662 288 643 228 605 183L492 296L419 224L523 119C492 104 454 94 410 94Z"  horiz-adv-x="819" vert-adv-y="1000"  />

      
      <glyph glyph-name="uni52" unicode="&#x52;" d="M84 0L199 0L199 262L340 262L551 0L687 0L463 274C555 296 634 356 634 481C634 648 495 700 365 700L84 700ZM199 363L199 596L370 596C444 596 518 569 518 479C518 390 444 363 370 363Z"  horiz-adv-x="700" vert-adv-y="1000"  />

      
      <glyph glyph-name="uni0154" unicode="&#x0154;" d="M261 767L370 767L476 915L352 915ZM84 0L199 0L199 262L340 262L551 0L687 0L463 274C555 296 634 356 634 481C634 648 495 700 365 700L84 700ZM199 363L199 596L370 596C444 596 518 569 518 479C518 390 444 363 370 363Z"  horiz-adv-x="700" vert-adv-y="1000"  />

      
      <glyph glyph-name="uni0158" unicode="&#x0158;" d="M291 768L387 768L518 918L408 918L339 839L270 918L160 918ZM84 0L199 0L199 262L340 262L551 0L687 0L463 274C555 296 634 356 634 481C634 648 495 700 365 700L84 700ZM199 363L199 596L370 596C444 596 518 569 518 479C518 390 444 363 370 363Z"  horiz-adv-x="700" vert-adv-y="1000"  />

      
      <glyph glyph-name="uni0156" unicode="&#x0156;" d="M84 0L199 0L199 262L340 262L551 0L687 0L463 274C555 296 634 356 634 481C634 648 495 700 365 700L84 700ZM199 363L199 596L370 596C444 596 518 569 518 479C518 390 444 363 370 363ZM282-246L372-246L413-47L310-47Z"  horiz-adv-x="700" vert-adv-y="1000"  />

      
      <glyph glyph-name="uni53" unicode="&#x53;" d="M300-13C439-14 565 37 565 184C565 434 164 373 164 524C164 584 218 609 303 609C378 610 456 589 513 551L513 660C456 693 375 713 295 713C162 713 47 651 47 522C47 274 448 340 448 178C448 112 381 91 291 91C211 91 128 111 51 160L51 48C121 9 206-13 300-13Z"  horiz-adv-x="596" vert-adv-y="1000"  />

      
      <glyph glyph-name="uni015A" unicode="&#x015A;" d="M212 767L321 767L427 915L303 915ZM300-13C439-14 565 37 565 184C565 434 164 373 164 524C164 584 218 609 303 609C378 610 456 589 513 551L513 660C456 693 375 713 295 713C162 713 47 651 47 522C47 274 448 340 448 178C448 112 381 91 291 91C211 91 128 111 51 160L51 48C121 9 206-13 300-13Z"  horiz-adv-x="596" vert-adv-y="1000"  />

      
      <glyph glyph-name="uni0160" unicode="&#x0160;" d="M242 768L338 768L469 918L359 918L290 839L221 918L111 918ZM300-13C439-14 565 37 565 184C565 434 164 373 164 524C164 584 218 609 303 609C378 610 456 589 513 551L513 660C456 693 375 713 295 713C162 713 47 651 47 522C47 274 448 340 448 178C448 112 381 91 291 91C211 91 128 111 51 160L51 48C121 9 206-13 300-13Z"  horiz-adv-x="596" vert-adv-y="1000"  />

      
      <glyph glyph-name="uni015E" unicode="&#x015E;" d="M299-233C373-233 437-203 437-136C436-84 401-54 337-53L348-11C467 0 565 55 565 184C565 434 164 373 164 524C164 584 218 609 303 609C378 610 456 589 513 551L513 660C456 693 375 713 295 713C162 713 47 651 47 522C47 274 448 340 448 178C448 112 381 91 291 91C211 91 128 111 51 160L51 48C113 14 185-7 265-12L245-101C296-93 351-99 351-126C351-147 327-159 284-159C252-159 221-151 198-138L198-214C228-227 260-233 299-233Z"  horiz-adv-x="596" vert-adv-y="1000"  />

      
      <glyph glyph-name="uni0218" unicode="&#x0218;" d="M300-13C439-14 565 37 565 184C565 434 164 373 164 524C164 584 218 609 303 609C378 610 456 589 513 551L513 660C456 693 375 713 295 713C162 713 47 651 47 522C47 274 448 340 448 178C448 112 381 91 291 91C211 91 128 111 51 160L51 48C121 9 206-13 300-13ZM227-246L317-246L358-47L255-47Z"  horiz-adv-x="596" vert-adv-y="1000"  />

      
      <glyph glyph-name="uni54" unicode="&#x54;" d="M245 0L360 0L360 595L591 595L591 700L14 700L14 595L245 595Z"  horiz-adv-x="605" vert-adv-y="1000"  />

      
      <glyph glyph-name="uni0166" unicode="&#x0166;" d="M251 0L365 0L365 299L484 299L484 384L365 384L365 595L597 595L597 700L19 700L19 595L251 595L251 384L132 384L132 299L251 299Z"  horiz-adv-x="616" vert-adv-y="1000"  />

      
      <glyph glyph-name="uni0164" unicode="&#x0164;" d="M258 768L354 768L485 918L375 918L306 839L237 918L127 918ZM245 0L360 0L360 595L591 595L591 700L14 700L14 595L245 595Z"  horiz-adv-x="605" vert-adv-y="1000"  />

      
      <glyph glyph-name="uni0162" unicode="&#x0162;" d="M245 0L360 0L360 595L591 595L591 700L14 700L14 595L245 595ZM228-246L318-246L359-47L256-47Z"  horiz-adv-x="605" vert-adv-y="1000"  />

      
      <glyph glyph-name="uni021A" unicode="&#x021A;" d="M245 0L360 0L360 595L591 595L591 700L14 700L14 595L245 595ZM228-246L318-246L359-47L256-47Z"  horiz-adv-x="605" vert-adv-y="1000"  />

      
      <glyph glyph-name="uni55" unicode="&#x55;" d="M376-13C531-13 675 56 675 259L675 700L561 700L561 265C561 138 484 93 376 93C268 93 191 138 191 265L191 700L77 700L77 259C77 56 220-13 376-13Z"  horiz-adv-x="752" vert-adv-y="1000"  />

      
      <glyph glyph-name="unida" unicode="&#xda;" d="M297 767L406 767L512 915L388 915ZM376-13C531-13 675 56 675 259L675 700L561 700L561 265C561 138 484 93 376 93C268 93 191 138 191 265L191 700L77 700L77 259C77 56 220-13 376-13Z"  horiz-adv-x="752" vert-adv-y="1000"  />

      
      <glyph glyph-name="unidb" unicode="&#xdb;" d="M199 765L309 765L375 841L441 765L551 765L423 915L327 915ZM376-13C531-13 675 56 675 259L675 700L561 700L561 265C561 138 484 93 376 93C268 93 191 138 191 265L191 700L77 700L77 259C77 56 220-13 376-13Z"  horiz-adv-x="752" vert-adv-y="1000"  />

      
      <glyph glyph-name="unidc" unicode="&#xdc;" d="M269 771C304 771 333 800 333 835C333 870 304 899 269 899C234 899 205 870 205 835C205 800 234 771 269 771ZM476 771C511 771 540 800 540 835C540 870 511 899 476 899C441 899 412 870 412 835C412 800 441 771 476 771ZM376-13C531-13 675 56 675 259L675 700L561 700L561 265C561 138 484 93 376 93C268 93 191 138 191 265L191 700L77 700L77 259C77 56 220-13 376-13Z"  horiz-adv-x="752" vert-adv-y="1000"  />

      
      <glyph glyph-name="unid9" unicode="&#xd9;" d="M341 767L450 767L359 915L235 915ZM376-13C531-13 675 56 675 259L675 700L561 700L561 265C561 138 484 93 376 93C268 93 191 138 191 265L191 700L77 700L77 259C77 56 220-13 376-13Z"  horiz-adv-x="752" vert-adv-y="1000"  />

      
      <glyph glyph-name="uni0170" unicode="&#x0170;" d="M232 770L337 770L414 920L303 920ZM399 770L504 770L581 920L469 920ZM376-13C531-13 675 56 675 259L675 700L561 700L561 265C561 138 484 93 376 93C268 93 191 138 191 265L191 700L77 700L77 259C77 56 220-13 376-13Z"  horiz-adv-x="752" vert-adv-y="1000"  />

      
      <glyph glyph-name="uni016A" unicode="&#x016A;" d="M217 776L529 776L529 866L217 866ZM376-13C531-13 675 56 675 259L675 700L561 700L561 265C561 138 484 93 376 93C268 93 191 138 191 265L191 700L77 700L77 259C77 56 220-13 376-13Z"  horiz-adv-x="752" vert-adv-y="1000"  />

      
      <glyph glyph-name="uni0172" unicode="&#x0172;" d="M471-234C501-234 530-227 554-211L554-134C539-144 520-150 503-151C478-150 463-137 464-113C463-82 487-23 579 44C637 86 675 155 675 259L675 700L561 700L561 265C561 138 484 93 376 93C268 93 191 138 191 265L191 700L77 700L77 259C77 56 220-13 376-13C393-13 410-12 426-11C388-50 366-98 366-140C365-192 401-234 471-234Z"  horiz-adv-x="752" vert-adv-y="1000"  />

      
      <glyph glyph-name="uni016E" unicode="&#x016E;" d="M372 740C435 740 492 783 492 855C492 926 435 969 372 969C309 969 252 926 252 855C252 783 309 740 372 740ZM372 805C345 805 323 824 323 855C323 884 345 904 372 904C399 904 421 884 421 855C421 824 399 805 372 805ZM376-13C531-13 675 56 675 259L675 700L561 700L561 265C561 138 484 93 376 93C268 93 191 138 191 265L191 700L77 700L77 259C77 56 220-13 376-13Z"  horiz-adv-x="752" vert-adv-y="1000"  />

      
      <glyph glyph-name="uni56" unicode="&#x56;" d="M291 0L408 0L690 700L567 700L349 132L132 700L9 700Z"  horiz-adv-x="699" vert-adv-y="1000"  />

      
      <glyph glyph-name="uni57" unicode="&#x57;" d="M226 0L351 0L511 522L671 0L796 0L1015 700L890 700L732 134L562 700L461 700L291 134L133 700L8 700Z"  horiz-adv-x="1023" vert-adv-y="1000"  />

      
      <glyph glyph-name="uni1E82" unicode="&#x1E82;" d="M435 767L544 767L650 915L526 915ZM226 0L351 0L511 522L671 0L796 0L1015 700L890 700L732 134L562 700L461 700L291 134L133 700L8 700Z"  horiz-adv-x="1023" vert-adv-y="1000"  />

      
      <glyph glyph-name="uni0174" unicode="&#x0174;" d="M337 765L447 765L513 841L579 765L689 765L561 915L465 915ZM226 0L351 0L511 522L671 0L796 0L1015 700L890 700L732 134L562 700L461 700L291 134L133 700L8 700Z"  horiz-adv-x="1023" vert-adv-y="1000"  />

      
      <glyph glyph-name="uni1E84" unicode="&#x1E84;" d="M407 771C442 771 471 800 471 835C471 870 442 899 407 899C372 899 343 870 343 835C343 800 372 771 407 771ZM614 771C650 771 678 800 678 835C678 870 650 899 614 899C579 899 550 870 550 835C550 800 579 771 614 771ZM226 0L351 0L511 522L671 0L796 0L1015 700L890 700L732 134L562 700L461 700L291 134L133 700L8 700Z"  horiz-adv-x="1023" vert-adv-y="1000"  />

      
      <glyph glyph-name="uni1E80" unicode="&#x1E80;" d="M478 767L587 767L496 915L372 915ZM226 0L351 0L511 522L671 0L796 0L1015 700L890 700L732 134L562 700L461 700L291 134L133 700L8 700Z"  horiz-adv-x="1023" vert-adv-y="1000"  />

      
      <glyph glyph-name="uni58" unicode="&#x58;" d="M-2 0L133 0L330 276L527 0L662 0L401 361L647 700L512 700L330 447L148 700L13 700L260 361Z"  horiz-adv-x="660" vert-adv-y="1000"  />

      
      <glyph glyph-name="uni59" unicode="&#x59;" d="M282 0L396 0L396 257L670 700L542 700L339 361L136 700L7 700L282 257Z"  horiz-adv-x="678" vert-adv-y="1000"  />

      
      <glyph glyph-name="unidd" unicode="&#xdd;" d="M263 767L372 767L478 915L354 915ZM282 0L396 0L396 257L670 700L542 700L339 361L136 700L7 700L282 257Z"  horiz-adv-x="678" vert-adv-y="1000"  />

      
      <glyph glyph-name="uni0176" unicode="&#x0176;" d="M165 765L275 765L341 841L407 765L517 765L389 915L293 915ZM282 0L396 0L396 257L670 700L542 700L339 361L136 700L7 700L282 257Z"  horiz-adv-x="678" vert-adv-y="1000"  />

      
      <glyph glyph-name="uni0178" unicode="&#x0178;" d="M235 771C270 771 299 800 299 835C299 870 270 899 235 899C200 899 171 870 171 835C171 800 200 771 235 771ZM442 771C477 771 506 800 506 835C506 870 477 899 442 899C407 899 378 870 378 835C378 800 407 771 442 771ZM282 0L396 0L396 257L670 700L542 700L339 361L136 700L7 700L282 257Z"  horiz-adv-x="678" vert-adv-y="1000"  />

      
      <glyph glyph-name="uni1EF2" unicode="&#x1EF2;" d="M306 767L415 767L324 915L200 915ZM282 0L396 0L396 257L670 700L542 700L339 361L136 700L7 700L282 257Z"  horiz-adv-x="678" vert-adv-y="1000"  />

      
      <glyph glyph-name="uni5a" unicode="&#x5a;" d="M34 0L566 0L566 106L178 106L552 609L552 700L46 700L46 595L406 595L34 91Z"  horiz-adv-x="598" vert-adv-y="1000"  />

      
      <glyph glyph-name="uni0179" unicode="&#x0179;" d="M230 767L339 767L445 915L321 915ZM34 0L566 0L566 106L178 106L552 609L552 700L46 700L46 595L406 595L34 91Z"  horiz-adv-x="598" vert-adv-y="1000"  />

      
      <glyph glyph-name="uni017D" unicode="&#x017D;" d="M260 768L356 768L487 918L377 918L308 839L239 918L129 918ZM34 0L566 0L566 106L178 106L552 609L552 700L46 700L46 595L406 595L34 91Z"  horiz-adv-x="598" vert-adv-y="1000"  />

      
      <glyph glyph-name="uni017B" unicode="&#x017B;" d="M306 761C344 761 376 783 376 830C376 875 344 897 306 897C269 897 236 875 236 830C236 783 269 761 306 761ZM34 0L566 0L566 106L178 106L552 609L552 700L46 700L46 595L406 595L34 91Z"  horiz-adv-x="598" vert-adv-y="1000"  />

      
      <glyph glyph-name="uni61" unicode="&#x61;" d="M199-13C274-13 333 10 380 49L381 46C399 9 434-7 476-7C500-7 524-3 544 5L544 82C534 79 522 76 512 76C492 76 476 84 476 111L476 283C476 428 390 493 255 493C178 493 109 474 71 461L71 363C114 382 173 400 243 400C325 400 369 358 369 298L369 281C332 289 285 295 245 295C145 295 31 257 31 134C31 35 112-13 199-13ZM231 70C183 70 141 94 141 141C141 201 205 220 266 220C300 220 341 214 369 208L369 126C332 89 282 70 231 70Z"  horiz-adv-x="551" vert-adv-y="1000"  />

      
      <glyph glyph-name="unie1" unicode="&#xe1;" d="M174 550L283 550L389 698L265 698ZM199-13C274-13 333 10 380 49L381 46C399 9 434-7 476-7C500-7 524-3 544 5L544 82C534 79 522 76 512 76C492 76 476 84 476 111L476 283C476 428 390 493 255 493C178 493 109 474 71 461L71 363C114 382 173 400 243 400C325 400 369 358 369 298L369 281C332 289 285 295 245 295C145 295 31 257 31 134C31 35 112-13 199-13ZM231 70C183 70 141 94 141 141C141 201 205 220 266 220C300 220 341 214 369 208L369 126C332 89 282 70 231 70Z"  horiz-adv-x="551" vert-adv-y="1000"  />

      
      <glyph glyph-name="uni0103" unicode="&#x0103;" d="M251 542C306 542 354 554 398 585L398 677C347 644 302 634 251 634C199 634 154 644 103 677L103 585C147 554 195 542 251 542ZM199-13C274-13 333 10 380 49L381 46C399 9 434-7 476-7C500-7 524-3 544 5L544 82C534 79 522 76 512 76C492 76 476 84 476 111L476 283C476 428 390 493 255 493C178 493 109 474 71 461L71 363C114 382 173 400 243 400C325 400 369 358 369 298L369 281C332 289 285 295 245 295C145 295 31 257 31 134C31 35 112-13 199-13ZM231 70C183 70 141 94 141 141C141 201 205 220 266 220C300 220 341 214 369 208L369 126C332 89 282 70 231 70Z"  horiz-adv-x="551" vert-adv-y="1000"  />

      
      <glyph glyph-name="unie2" unicode="&#xe2;" d="M76 548L186 548L252 624L318 548L428 548L300 698L204 698ZM199-13C274-13 333 10 380 49L381 46C399 9 434-7 476-7C500-7 524-3 544 5L544 82C534 79 522 76 512 76C492 76 476 84 476 111L476 283C476 428 390 493 255 493C178 493 109 474 71 461L71 363C114 382 173 400 243 400C325 400 369 358 369 298L369 281C332 289 285 295 245 295C145 295 31 257 31 134C31 35 112-13 199-13ZM231 70C183 70 141 94 141 141C141 201 205 220 266 220C300 220 341 214 369 208L369 126C332 89 282 70 231 70Z"  horiz-adv-x="551" vert-adv-y="1000"  />

      
      <glyph glyph-name="unie4" unicode="&#xe4;" d="M146 554C181 554 210 583 210 618C210 653 181 682 146 682C111 682 82 653 82 618C82 583 111 554 146 554ZM353 554C388 554 417 583 417 618C417 653 388 682 353 682C318 682 289 653 289 618C289 583 318 554 353 554ZM199-13C274-13 333 10 380 49L381 46C399 9 434-7 476-7C500-7 524-3 544 5L544 82C534 79 522 76 512 76C492 76 476 84 476 111L476 283C476 428 390 493 255 493C178 493 109 474 71 461L71 363C114 382 173 400 243 400C325 400 369 358 369 298L369 281C332 289 285 295 245 295C145 295 31 257 31 134C31 35 112-13 199-13ZM231 70C183 70 141 94 141 141C141 201 205 220 266 220C300 220 341 214 369 208L369 126C332 89 282 70 231 70Z"  horiz-adv-x="551" vert-adv-y="1000"  />

      
      <glyph glyph-name="unie0" unicode="&#xe0;" d="M218 550L327 550L236 698L112 698ZM199-13C274-13 333 10 380 49L381 46C399 9 434-7 476-7C500-7 524-3 544 5L544 82C534 79 522 76 512 76C492 76 476 84 476 111L476 283C476 428 390 493 255 493C178 493 109 474 71 461L71 363C114 382 173 400 243 400C325 400 369 358 369 298L369 281C332 289 285 295 245 295C145 295 31 257 31 134C31 35 112-13 199-13ZM231 70C183 70 141 94 141 141C141 201 205 220 266 220C300 220 341 214 369 208L369 126C332 89 282 70 231 70Z"  horiz-adv-x="551" vert-adv-y="1000"  />

      
      <glyph glyph-name="uni0101" unicode="&#x0101;" d="M94 559L406 559L406 649L94 649ZM199-13C274-13 333 10 380 49L381 46C399 9 434-7 476-7C500-7 524-3 544 5L544 82C534 79 522 76 512 76C492 76 476 84 476 111L476 283C476 428 390 493 255 493C178 493 109 474 71 461L71 363C114 382 173 400 243 400C325 400 369 358 369 298L369 281C332 289 285 295 245 295C145 295 31 257 31 134C31 35 112-13 199-13ZM231 70C183 70 141 94 141 141C141 201 205 220 266 220C300 220 341 214 369 208L369 126C332 89 282 70 231 70Z"  horiz-adv-x="551" vert-adv-y="1000"  />

      
      <glyph glyph-name="uni0105" unicode="&#x0105;" d="M544 5L544 82C534 79 522 76 512 76C492 76 476 84 476 111L476 283C476 428 390 493 255 493C178 493 109 474 71 461L71 363C114 382 173 400 243 400C325 400 369 358 369 298L369 281C332 289 285 295 245 295C145 295 31 257 31 134C31 35 112-13 199-13C274-13 333 10 380 49L381 46C392 21 412 6 436-2C388-42 364-91 364-135C364-187 399-229 470-229C495-229 521-223 543-212L543-134C530-141 515-145 502-146C476-145 461-132 462-108C461-77 491-31 544 5ZM369 126C332 89 282 70 231 70C183 70 141 94 141 141C141 201 205 220 266 220C300 220 341 214 369 208Z"  horiz-adv-x="551" vert-adv-y="1000"  />

      
      <glyph glyph-name="unie5" unicode="&#xe5;" d="M249 523C312 523 369 566 369 638C369 709 312 752 249 752C186 752 129 709 129 638C129 566 186 523 249 523ZM249 588C222 588 200 607 200 638C200 667 222 687 249 687C276 687 298 667 298 638C298 607 276 588 249 588ZM199-13C274-13 333 10 380 49L381 46C399 9 434-7 476-7C500-7 524-3 544 5L544 82C534 79 522 76 512 76C492 76 476 84 476 111L476 283C476 428 390 493 255 493C178 493 109 474 71 461L71 363C114 382 173 400 243 400C325 400 369 358 369 298L369 281C332 289 285 295 245 295C145 295 31 257 31 134C31 35 112-13 199-13ZM231 70C183 70 141 94 141 141C141 201 205 220 266 220C300 220 341 214 369 208L369 126C332 89 282 70 231 70Z"  horiz-adv-x="551" vert-adv-y="1000"  />

      
      <glyph glyph-name="unie3" unicode="&#xe3;" d="M333 538C390 538 435 583 421 660L337 660C340 641 334 623 310 623C279 623 226 666 164 666C108 666 63 620 78 543L162 543C158 562 166 580 188 580C219 580 271 538 333 538ZM199-13C274-13 333 10 380 49L381 46C399 9 434-7 476-7C500-7 524-3 544 5L544 82C534 79 522 76 512 76C492 76 476 84 476 111L476 283C476 428 390 493 255 493C178 493 109 474 71 461L71 363C114 382 173 400 243 400C325 400 369 358 369 298L369 281C332 289 285 295 245 295C145 295 31 257 31 134C31 35 112-13 199-13ZM231 70C183 70 141 94 141 141C141 201 205 220 266 220C300 220 341 214 369 208L369 126C332 89 282 70 231 70Z"  horiz-adv-x="551" vert-adv-y="1000"  />

      
      <glyph glyph-name="unie6" unicode="&#xe6;" d="M209-13C293-13 378 11 448 70C495 15 570-13 650-13C717-13 779 0 823 23L823 112C783 92 729 78 674 78C585 78 502 114 489 197L851 197C882 338 819 493 631 493C565 493 494 464 449 405C416 465 353 493 255 493C178 493 109 474 71 461L71 363C114 381 173 399 244 399C343 399 387 361 387 297L387 281C349 289 303 295 256 295C144 295 31 258 31 134C31 35 113-13 209-13ZM489 276C493 360 557 404 629 404C735 404 761 322 755 276ZM238 71C184 71 141 92 141 141C141 202 208 221 277 221C316 221 355 215 391 209C393 179 399 154 409 131C354 85 295 71 238 71Z"  horiz-adv-x="893" vert-adv-y="1000"  />

      
      <glyph glyph-name="uni62" unicode="&#x62;" d="M347-13C491-13 585 102 585 240C585 378 491 493 347 493C263 493 207 456 174 418L174 700L67 700L67 0L163 0L163 76C200 29 257-13 347-13ZM327 81C253 81 198 129 174 182L174 299C198 351 253 399 327 399C414 399 476 334 476 240C476 146 414 81 327 81Z"  horiz-adv-x="622" vert-adv-y="1000"  />

      
      <glyph glyph-name="uni63" unicode="&#x63;" d="M296-13C357-13 409-2 455 20L455 119C417 97 366 82 314 82C229 82 145 131 145 240C145 353 232 398 317 398C365 398 415 383 450 358L450 456C408 481 355 493 302 493C173 493 37 415 37 236C37 65 168-13 296-13Z"  horiz-adv-x="492" vert-adv-y="1000"  />

      
      <glyph glyph-name="uni0107" unicode="&#x0107;" d="M224 547L333 547L439 695L315 695ZM296-13C357-13 409-2 455 20L455 119C417 97 366 82 314 82C229 82 145 131 145 240C145 353 232 398 317 398C365 398 415 383 450 358L450 456C408 481 355 493 302 493C173 493 37 415 37 236C37 65 168-13 296-13Z"  horiz-adv-x="492" vert-adv-y="1000"  />

      
      <glyph glyph-name="uni010D" unicode="&#x010D;" d="M255 548L351 548L482 698L372 698L303 619L234 698L124 698ZM296-13C357-13 409-2 455 20L455 119C417 97 366 82 314 82C229 82 145 131 145 240C145 353 232 398 317 398C365 398 415 383 450 358L450 456C408 481 355 493 302 493C173 493 37 415 37 236C37 65 168-13 296-13Z"  horiz-adv-x="492" vert-adv-y="1000"  />

      
      <glyph glyph-name="unie7" unicode="&#xe7;" d="M287-233C361-233 425-203 425-136C424-84 389-54 325-53L336-11C380-7 419 4 455 20L455 119C417 97 366 82 314 82C229 82 145 131 145 240C145 353 232 398 317 398C365 398 415 383 450 358L450 456C408 481 355 493 302 493C173 493 37 415 37 236C37 84 141 5 254-10L233-101C284-93 340-99 340-126C340-147 315-159 272-159C240-159 209-151 187-138L187-214C217-227 248-233 287-233Z"  horiz-adv-x="492" vert-adv-y="1000"  />

      
      <glyph glyph-name="uni010B" unicode="&#x010B;" d="M301 541C339 541 371 563 371 610C371 655 339 677 301 677C264 677 231 655 231 610C231 563 264 541 301 541ZM296-13C357-13 409-2 455 20L455 119C417 97 366 82 314 82C229 82 145 131 145 240C145 353 232 398 317 398C365 398 415 383 450 358L450 456C408 481 355 493 302 493C173 493 37 415 37 236C37 65 168-13 296-13Z"  horiz-adv-x="492" vert-adv-y="1000"  />

      
      <glyph glyph-name="uni64" unicode="&#x64;" d="M274-13C365-13 422 29 459 76L459 0L555 0L555 700L448 700L448 418C414 456 359 493 274 493C130 493 37 378 37 240C37 102 130-13 274-13ZM295 81C208 81 145 146 145 240C145 334 208 399 295 399C369 399 424 351 448 299L448 182C424 129 369 81 295 81Z"  horiz-adv-x="622" vert-adv-y="1000"  />

      
      <glyph glyph-name="unif0" unicode="&#xf0;" d="M290-13C435-13 543 76 543 274C543 462 463 575 360 638L421 700L367 754L286 674C225 695 160 705 101 705L101 615C141 615 180 612 216 603L153 540L207 486L294 573C367 536 420 470 438 374L441 351C411 405 339 441 256 441C137 441 37 352 37 219C37 74 148-13 290-13ZM290 82C197 82 146 143 146 219C146 291 196 351 283 351C374 351 429 285 431 208C422 140 381 82 290 82Z"  horiz-adv-x="589" vert-adv-y="1000"  />

      
      <glyph glyph-name="uni010F" unicode="&#x010F;" d="M274-13C365-13 422 29 459 76L459 0L555 0L555 700L448 700L448 418C414 456 359 493 274 493C130 493 37 378 37 240C37 102 130-13 274-13ZM607 508L692 508L722 700L624 700ZM295 81C208 81 145 146 145 240C145 334 208 399 295 399C369 399 424 351 448 299L448 182C424 129 369 81 295 81Z"  horiz-adv-x="621" vert-adv-y="1000"  />

      
      <glyph glyph-name="uni0111" unicode="&#x0111;" d="M274-13C365-13 422 29 459 76L459 0L555 0L555 562L618 562L618 634L555 634L555 700L448 700L448 634L291 634L291 562L448 562L448 418C414 456 359 493 274 493C130 493 37 378 37 240C37 102 130-13 274-13ZM295 81C208 81 145 146 145 240C145 334 208 399 295 399C369 399 424 351 448 299L448 182C424 129 369 81 295 81Z"  horiz-adv-x="621" vert-adv-y="1000"  />

      
      <glyph glyph-name="uni65" unicode="&#x65;" d="M309-13C375-13 437-1 481 20L481 112C440 92 386 78 329 78C240 78 157 114 144 200L506 200C537 339 471 493 280 493C168 493 37 414 37 240C37 71 162-13 309-13ZM144 280C148 361 213 404 284 404C390 404 416 322 410 280Z"  horiz-adv-x="548" vert-adv-y="1000"  />

      
      <glyph glyph-name="unie9" unicode="&#xe9;" d="M204 547L313 547L419 695L295 695ZM309-13C375-13 437-1 481 20L481 112C440 92 386 78 329 78C240 78 157 114 144 200L506 200C537 339 471 493 280 493C168 493 37 414 37 240C37 71 162-13 309-13ZM144 280C148 361 213 404 284 404C390 404 416 322 410 280Z"  horiz-adv-x="548" vert-adv-y="1000"  />

      
      <glyph glyph-name="uni011B" unicode="&#x011B;" d="M234 548L330 548L461 698L351 698L282 619L213 698L103 698ZM309-13C375-13 437-1 481 20L481 112C440 92 386 78 329 78C240 78 157 114 144 200L506 200C537 339 471 493 280 493C168 493 37 414 37 240C37 71 162-13 309-13ZM144 280C148 361 213 404 284 404C390 404 416 322 410 280Z"  horiz-adv-x="548" vert-adv-y="1000"  />

      
      <glyph glyph-name="uniea" unicode="&#xea;" d="M106 545L216 545L282 621L348 545L458 545L330 695L234 695ZM309-13C375-13 437-1 481 20L481 112C440 92 386 78 329 78C240 78 157 114 144 200L506 200C537 339 471 493 280 493C168 493 37 414 37 240C37 71 162-13 309-13ZM144 280C148 361 213 404 284 404C390 404 416 322 410 280Z"  horiz-adv-x="548" vert-adv-y="1000"  />

      
      <glyph glyph-name="unieb" unicode="&#xeb;" d="M176 551C211 551 240 580 240 615C240 650 211 679 176 679C141 679 112 650 112 615C112 580 141 551 176 551ZM383 551C418 551 447 580 447 615C447 650 418 679 383 679C348 679 319 650 319 615C319 580 348 551 383 551ZM309-13C375-13 437-1 481 20L481 112C440 92 386 78 329 78C240 78 157 114 144 200L506 200C537 339 471 493 280 493C168 493 37 414 37 240C37 71 162-13 309-13ZM144 280C148 361 213 404 284 404C390 404 416 322 410 280Z"  horiz-adv-x="548" vert-adv-y="1000"  />

      
      <glyph glyph-name="uni0117" unicode="&#x0117;" d="M280 541C318 541 350 563 350 610C350 655 318 677 280 677C243 677 210 655 210 610C210 563 243 541 280 541ZM309-13C375-13 437-1 481 20L481 112C440 92 386 78 329 78C240 78 157 114 144 200L506 200C537 339 471 493 280 493C168 493 37 414 37 240C37 71 162-13 309-13ZM144 280C148 361 213 404 284 404C390 404 416 322 410 280Z"  horiz-adv-x="548" vert-adv-y="1000"  />

      
      <glyph glyph-name="unie8" unicode="&#xe8;" d="M248 547L357 547L266 695L142 695ZM309-13C375-13 437-1 481 20L481 112C440 92 386 78 329 78C240 78 157 114 144 200L506 200C537 339 471 493 280 493C168 493 37 414 37 240C37 71 162-13 309-13ZM144 280C148 361 213 404 284 404C390 404 416 322 410 280Z"  horiz-adv-x="548" vert-adv-y="1000"  />

      
      <glyph glyph-name="uni0113" unicode="&#x0113;" d="M124 556L436 556L436 646L124 646ZM309-13C375-13 437-1 481 20L481 112C440 92 386 78 329 78C240 78 157 114 144 200L506 200C537 339 471 493 280 493C168 493 37 414 37 240C37 71 162-13 309-13ZM144 280C148 361 213 404 284 404C390 404 416 322 410 280Z"  horiz-adv-x="548" vert-adv-y="1000"  />

      
      <glyph glyph-name="uni0119" unicode="&#x0119;" d="M386-233C416-233 445-226 469-211L469-133C454-143 435-149 418-150C393-149 378-136 379-113C378-81 407-36 481 20L481 112C440 92 386 78 329 78C240 78 157 114 144 200L506 200C537 340 471 493 280 493C168 493 37 414 37 240C37 71 162-13 309-13C324-13 338-12 354-11C304-50 281-97 280-139C280-191 316-234 386-233ZM144 280C148 361 213 404 284 404C390 404 416 322 410 280Z"  horiz-adv-x="548" vert-adv-y="1000"  />

      
      <glyph glyph-name="uni66" unicode="&#x66;" d="M109 0L216 0L216 386L380 386L380 480L216 480L216 529C216 604 262 619 314 619C347 619 382 610 407 598L407 692C374 704 332 713 288 713C200 713 109 672 109 533L109 480L22 480L22 386L109 386Z"  horiz-adv-x="390" vert-adv-y="1000"  />

      
      <glyph glyph-name="uni67" unicode="&#x67;" d="M286-233C423-233 555-167 555 6L555 480L459 480L459 405C422 451 365 493 274 493C130 493 37 378 37 240C37 102 130-13 274-13C359-13 414 24 448 64L448 3C448-105 367-139 272-139C206-139 143-122 87-90L87-188C145-217 213-233 286-233ZM295 81C208 81 145 146 145 240C145 334 208 399 295 399C369 399 424 351 448 299L448 175C424 126 369 81 295 81Z"  horiz-adv-x="622" vert-adv-y="1000"  />

      
      <glyph glyph-name="uni011F" unicode="&#x011F;" d="M286 539C341 539 389 551 433 582L433 674C382 641 337 631 286 631C234 631 189 641 138 674L138 582C182 551 230 539 286 539ZM286-233C423-233 555-167 555 6L555 480L459 480L459 405C422 451 365 493 274 493C130 493 37 378 37 240C37 102 130-13 274-13C359-13 414 24 448 64L448 3C448-105 367-139 272-139C206-139 143-122 87-90L87-188C145-217 213-233 286-233ZM295 81C208 81 145 146 145 240C145 334 208 399 295 399C369 399 424 351 448 299L448 175C424 126 369 81 295 81Z"  horiz-adv-x="622" vert-adv-y="1000"  />

      
      <glyph glyph-name="uni0123" unicode="&#x0123;" d="M242 543L340 543L367 721L282 721ZM286-233C423-233 555-167 555 6L555 480L459 480L459 405C422 451 365 493 274 493C130 493 37 378 37 240C37 102 130-13 274-13C359-13 414 24 448 64L448 3C448-105 367-139 272-139C206-139 143-122 87-90L87-188C145-217 213-233 286-233ZM295 81C208 81 145 146 145 240C145 334 208 399 295 399C369 399 424 351 448 299L448 175C424 126 369 81 295 81Z"  horiz-adv-x="622" vert-adv-y="1000"  />

      
      <glyph glyph-name="uni0121" unicode="&#x0121;" d="M286 541C324 541 356 563 356 610C356 655 324 677 286 677C249 677 216 655 216 610C216 563 249 541 286 541ZM286-233C423-233 555-167 555 6L555 480L459 480L459 405C422 451 365 493 274 493C130 493 37 378 37 240C37 102 130-13 274-13C359-13 414 24 448 64L448 3C448-105 367-139 272-139C206-139 143-122 87-90L87-188C145-217 213-233 286-233ZM295 81C208 81 145 146 145 240C145 334 208 399 295 399C369 399 424 351 448 299L448 175C424 126 369 81 295 81Z"  horiz-adv-x="622" vert-adv-y="1000"  />

      
      <glyph glyph-name="uni68" unicode="&#x68;" d="M67 0L174 0L174 318C201 357 247 398 308 398C372 398 420 361 420 283L420 0L527 0L527 297C527 411 450 493 330 493C264 493 209 463 174 426L174 700L67 700Z"  horiz-adv-x="589" vert-adv-y="1000"  />

      
      <glyph glyph-name="uni0127" unicode="&#x0127;" d="M66 0L173 0L173 318C200 357 246 398 307 398C372 398 419 361 419 283L419 0L526 0L526 297C526 411 449 493 329 493C263 493 208 463 173 426L173 554L334 554L334 626L173 626L173 700L66 700L66 626L10 626L10 554L66 554Z"  horiz-adv-x="588" vert-adv-y="1000"  />

      
      <glyph glyph-name="uni69" unicode="&#x69;" d="M122 572C158 572 188 592 188 636C188 678 158 699 122 699C87 699 57 678 57 636C57 592 87 572 122 572ZM69 0L176 0L176 480L69 480Z"  horiz-adv-x="245" vert-adv-y="1000"  />

      
      <glyph glyph-name="uni0131" unicode="&#x0131;" d="M60 0L167 0L167 480L60 480Z"  horiz-adv-x="228" vert-adv-y="1000"  />

      
      <glyph glyph-name="unied" unicode="&#xed;" d="M38 547L147 547L253 695L129 695ZM60 0L167 0L167 480L60 480Z"  horiz-adv-x="228" vert-adv-y="1000"  />

      
      <glyph glyph-name="uniee" unicode="&#xee;" d="M-28 545L76 545L124 614L173 545L277 545L172 688L77 688ZM69 0L176 0L176 480L69 480Z"  horiz-adv-x="245" vert-adv-y="1000"  />

      
      <glyph glyph-name="unief" unicode="&#xef;" d="M36 556C68 556 95 583 95 615C95 647 68 674 36 674C3 674-23 647-23 615C-23 583 3 556 36 556ZM209 556C241 556 268 583 268 615C268 647 241 674 209 674C177 674 150 647 150 615C150 583 177 556 209 556ZM69 0L176 0L176 480L69 480Z"  horiz-adv-x="245" vert-adv-y="1000"  />

      
      <glyph glyph-name="uniec" unicode="&#xec;" d="M94 547L196 547L128 695L11 695ZM69 0L176 0L176 480L69 480Z"  horiz-adv-x="245" vert-adv-y="1000"  />

      
      <glyph glyph-name="uni0133" unicode="&#x0133;" d="M122 572C158 572 188 592 188 636C188 678 158 699 122 699C87 699 57 678 57 636C57 592 87 572 122 572ZM367 572C403 572 433 592 433 636C433 678 403 699 367 699C332 699 301 678 301 636C301 592 332 572 367 572ZM69 0L176 0L176 480L69 480ZM269-233C344-233 421-198 421-79L421 480L314 480L314-61C314-118 279-135 240-135C223-135 205-132 189-125L189-219C210-228 237-233 269-233Z"  horiz-adv-x="489" vert-adv-y="1000"  />

      
      <glyph glyph-name="uni012B" unicode="&#x012B;" d="M6 569L238 569L238 655L6 655ZM69 0L176 0L176 480L69 480Z"  horiz-adv-x="245" vert-adv-y="1000"  />

      
      <glyph glyph-name="uni012F" unicode="&#x012F;" d="M124 572C159 572 189 592 189 636C189 678 159 699 124 699C89 699 58 678 58 636C58 592 89 572 124 572ZM149-151C124-150 109-137 110-113C109-82 138-36 177 0L177 480L70 480L70 0L78 0C37-42 11-95 11-140C11-192 47-234 117-234C147-234 176-227 200-211L200-134C185-144 166-150 149-151Z"  horiz-adv-x="245" vert-adv-y="1000"  />

      
      <glyph glyph-name="uni6a" unicode="&#x6a;" d="M122 572C158 572 188 592 188 636C188 678 158 699 122 699C87 699 56 678 56 636C56 592 87 572 122 572ZM24-233C99-233 176-198 176-79L176 480L69 480L69-61C69-118 34-135-5-135C-22-135-40-132-56-125L-56-219C-35-228-8-233 24-233Z"  horiz-adv-x="245" vert-adv-y="1000"  />

      
      <glyph glyph-name="uni6b" unicode="&#x6b;" d="M67 0L174 0L174 200L230 200L409 0L532 0L322 245L513 480L391 480L232 288L174 288L174 700L67 700Z"  horiz-adv-x="533" vert-adv-y="1000"  />

      
      <glyph glyph-name="uni0137" unicode="&#x0137;" d="M67 0L174 0L174 200L230 200L409 0L532 0L322 245L513 480L391 480L232 288L174 288L174 700L67 700ZM206-246L296-246L337-47L234-47Z"  horiz-adv-x="533" vert-adv-y="1000"  />

      
      <glyph glyph-name="uni6c" unicode="&#x6c;" d="M69 0L176 0L176 730L69 730Z"  horiz-adv-x="245" vert-adv-y="1000"  />

      
      <glyph glyph-name="uni013A" unicode="&#x013A;" d="M59 773L168 773L274 921L150 921ZM69 0L176 0L176 730L69 730Z"  horiz-adv-x="245" vert-adv-y="1000"  />

      
      <glyph glyph-name="uni013E" unicode="&#x013E;" d="M69 0L176 0L176 730L69 730ZM229 538L314 538L344 730L246 730Z"  horiz-adv-x="243" vert-adv-y="1000"  />

      
      <glyph glyph-name="uni013C" unicode="&#x013C;" d="M69 0L176 0L176 730L69 730ZM48-246L138-246L179-47L76-47Z"  horiz-adv-x="245" vert-adv-y="1000"  />

      
      <glyph glyph-name="uni0140" unicode="&#x0140;" d="M69 0L176 0L176 730L69 730ZM293 285C329 285 360 306 360 350C360 394 329 415 293 415C257 415 225 394 225 350C225 306 257 285 293 285Z"  horiz-adv-x="327" vert-adv-y="1000"  />

      
      <glyph glyph-name="uni0142" unicode="&#x0142;" d="M106 0L213 0L213 344L295 378L295 466L213 433L213 730L106 730L106 391L25 357L25 269L106 302Z"  horiz-adv-x="320" vert-adv-y="1000"  />

      
      <glyph glyph-name="uni6d" unicode="&#x6d;" d="M67 0L174 0L174 324C199 356 243 398 301 398C359 398 396 359 396 297L396 0L503 0L503 300C503 311 502 322 501 333C526 363 567 398 620 398C678 398 715 359 715 297L715 0L822 0L822 300C822 399 767 493 641 493C571 493 514 458 472 416C444 463 394 493 322 493C244 493 188 448 163 420L163 480L67 480Z"  horiz-adv-x="883" vert-adv-y="1000"  />

      
      <glyph glyph-name="uni6e" unicode="&#x6e;" d="M67 0L174 0L174 318C201 357 247 398 308 398C372 398 420 361 420 283L420 0L527 0L527 297C527 411 450 493 330 493C256 493 197 456 163 414L163 480L67 480Z"  horiz-adv-x="589" vert-adv-y="1000"  />

      
      <glyph glyph-name="uni0144" unicode="&#x0144;" d="M218 547L327 547L433 695L309 695ZM67 0L174 0L174 318C201 357 247 398 308 398C372 398 420 361 420 283L420 0L527 0L527 297C527 411 450 493 330 493C256 493 197 456 163 414L163 480L67 480Z"  horiz-adv-x="589" vert-adv-y="1000"  />

      
      <glyph glyph-name="uni0148" unicode="&#x0148;" d="M248 548L344 548L475 698L365 698L296 619L227 698L117 698ZM67 0L174 0L174 318C201 357 247 398 308 398C372 398 420 361 420 283L420 0L527 0L527 297C527 411 450 493 330 493C256 493 197 456 163 414L163 480L67 480Z"  horiz-adv-x="589" vert-adv-y="1000"  />

      
      <glyph glyph-name="uni0146" unicode="&#x0146;" d="M67 0L174 0L174 318C201 357 247 398 308 398C372 398 420 361 420 283L420 0L527 0L527 297C527 411 450 493 330 493C256 493 197 456 163 414L163 480L67 480ZM225-246L315-246L356-47L253-47Z"  horiz-adv-x="589" vert-adv-y="1000"  />

      
      <glyph glyph-name="uni014B" unicode="&#x014B;" d="M378-233C448-233 527-201 527-82L527 297C527 411 450 493 330 493C256 493 197 456 163 414L163 480L67 480L67 0L174 0L174 318C201 357 247 398 308 398C372 398 420 361 420 283L420-64C420-123 386-139 348-139C331-139 316-135 302-129L302-219C322-228 348-233 378-233Z"  horiz-adv-x="589" vert-adv-y="1000"  />

      
      <glyph glyph-name="unif1" unicode="&#xf1;" d="M378 535C435 535 480 580 466 657L382 657C385 638 379 620 355 620C324 620 271 663 209 663C153 663 108 617 123 540L207 540C203 559 211 577 233 577C264 577 316 535 378 535ZM67 0L174 0L174 318C201 357 247 398 308 398C372 398 420 361 420 283L420 0L527 0L527 297C527 411 450 493 330 493C256 493 197 456 163 414L163 480L67 480Z"  horiz-adv-x="589" vert-adv-y="1000"  />

      
      <glyph glyph-name="uni6f" unicode="&#x6f;" d="M297-13C432-13 557 74 557 240C557 406 432 493 297 493C163 493 37 406 37 240C37 74 163-13 297-13ZM297 85C207 85 145 146 145 240C145 334 207 395 297 395C387 395 449 334 449 240C449 146 387 85 297 85Z"  horiz-adv-x="594" vert-adv-y="1000"  />

      
      <glyph glyph-name="unif3" unicode="&#xf3;" d="M220 544L329 544L435 692L311 692ZM297-13C432-13 557 74 557 240C557 406 432 493 297 493C163 493 37 406 37 240C37 74 163-13 297-13ZM297 85C207 85 145 146 145 240C145 334 207 395 297 395C387 395 449 334 449 240C449 146 387 85 297 85Z"  horiz-adv-x="594" vert-adv-y="1000"  />

      
      <glyph glyph-name="unif4" unicode="&#xf4;" d="M123 542L233 542L299 618L365 542L475 542L347 692L251 692ZM297-13C432-13 557 74 557 240C557 406 432 493 297 493C163 493 37 406 37 240C37 74 163-13 297-13ZM297 85C207 85 145 146 145 240C145 334 207 395 297 395C387 395 449 334 449 240C449 146 387 85 297 85Z"  horiz-adv-x="594" vert-adv-y="1000"  />

      
      <glyph glyph-name="unif6" unicode="&#xf6;" d="M192 548C227 548 256 577 256 612C256 647 227 676 192 676C157 676 128 647 128 612C128 577 157 548 192 548ZM399 548C434 548 463 577 463 612C463 647 434 676 399 676C364 676 335 647 335 612C335 577 364 548 399 548ZM297-13C432-13 557 74 557 240C557 406 432 493 297 493C163 493 37 406 37 240C37 74 163-13 297-13ZM297 85C207 85 145 146 145 240C145 334 207 395 297 395C387 395 449 334 449 240C449 146 387 85 297 85Z"  horiz-adv-x="594" vert-adv-y="1000"  />

      
      <glyph glyph-name="unif2" unicode="&#xf2;" d="M264 544L373 544L282 692L158 692ZM297-13C432-13 557 74 557 240C557 406 432 493 297 493C163 493 37 406 37 240C37 74 163-13 297-13ZM297 85C207 85 145 146 145 240C145 334 207 395 297 395C387 395 449 334 449 240C449 146 387 85 297 85Z"  horiz-adv-x="594" vert-adv-y="1000"  />

      
      <glyph glyph-name="uni0151" unicode="&#x0151;" d="M155 547L260 547L337 697L226 697ZM322 547L427 547L503 697L392 697ZM297-13C432-13 557 74 557 240C557 406 432 493 297 493C163 493 37 406 37 240C37 74 163-13 297-13ZM297 85C207 85 145 146 145 240C145 334 207 395 297 395C387 395 449 334 449 240C449 146 387 85 297 85Z"  horiz-adv-x="594" vert-adv-y="1000"  />

      
      <glyph glyph-name="uni014D" unicode="&#x014D;" d="M141 553L453 553L453 643L141 643ZM297-13C432-13 557 74 557 240C557 406 432 493 297 493C163 493 37 406 37 240C37 74 163-13 297-13ZM297 85C207 85 145 146 145 240C145 334 207 395 297 395C387 395 449 334 449 240C449 146 387 85 297 85Z"  horiz-adv-x="594" vert-adv-y="1000"  />

      
      <glyph glyph-name="unif8" unicode="&#xf8;" d="M66-61L132-61L179 11C215-5 256-13 297-13C432-13 557 74 557 240C557 333 519 400 461 442L527 543L462 543L414 469C378 485 338 493 297 493C163 493 37 406 37 240C37 148 75 81 132 39ZM189 126C161 153 145 193 145 240C145 334 207 395 297 395C319 395 339 391 358 384ZM297 85C274 85 253 89 234 97L404 355C432 328 449 288 449 240C449 146 387 85 297 85Z"  horiz-adv-x="594" vert-adv-y="1000"  />

      
      <glyph glyph-name="unif5" unicode="&#xf5;" d="M380 532C437 532 482 577 468 654L384 654C387 635 381 617 357 617C326 617 273 660 211 660C155 660 110 614 125 537L209 537C205 556 213 574 235 574C266 574 318 532 380 532ZM297-13C432-13 557 74 557 240C557 406 432 493 297 493C163 493 37 406 37 240C37 74 163-13 297-13ZM297 85C207 85 145 146 145 240C145 334 207 395 297 395C387 395 449 334 449 240C449 146 387 85 297 85Z"  horiz-adv-x="594" vert-adv-y="1000"  />

      
      <glyph glyph-name="uni0153" unicode="&#x0153;" d="M291-13C379-13 456 23 500 94C546 21 628-13 717-13C783-13 846 0 890 23L890 112C850 92 796 78 741 78C652 78 569 114 556 197L918 197C949 338 883 493 695 493C622 493 545 460 500 387C457 457 378 493 291 493C161 493 37 406 37 240C37 74 161-13 291-13ZM556 276C560 360 623 404 696 404C802 404 828 322 822 276ZM297 85C207 85 145 146 145 240C145 334 207 395 297 395C387 395 449 334 449 240C449 146 387 85 297 85Z"  horiz-adv-x="959" vert-adv-y="1000"  />

      
      <glyph glyph-name="uni70" unicode="&#x70;" d="M67-220L174-220L174 62C207 24 263-13 347-13C491-13 585 102 585 240C585 378 491 493 347 493C257 493 200 451 163 405L163 480L67 480ZM327 81C253 81 198 129 174 182L174 299C198 351 253 399 327 399C414 399 476 334 476 240C476 146 414 81 327 81Z"  horiz-adv-x="622" vert-adv-y="1000"  />

      
      <glyph glyph-name="unife" unicode="&#xfe;" d="M67-220L174-220L174 64C208 26 265-13 349-13C490-13 585 100 585 240C585 376 493 493 349 493C265 493 209 455 174 415L174 700L67 700ZM327 82C255 83 199 130 174 183L174 297C198 351 253 399 327 399C414 399 476 334 476 240C476 146 413 82 327 82Z"  horiz-adv-x="622" vert-adv-y="1000"  />

      
      <glyph glyph-name="uni71" unicode="&#x71;" d="M448-220L555-220L555 480L459 480L459 405C422 451 365 493 274 493C130 493 37 378 37 240C37 102 130-13 274-13C359-13 414 24 448 62ZM295 81C208 81 145 146 145 240C145 334 208 399 295 399C369 399 424 351 448 299L448 182C424 129 369 81 295 81Z"  horiz-adv-x="622" vert-adv-y="1000"  />

      
      <glyph glyph-name="uni72" unicode="&#x72;" d="M67 0L174 0L174 291C203 359 278 397 364 385L364 490C277 498 199 460 163 401L163 480L67 480Z"  horiz-adv-x="377" vert-adv-y="1000"  />

      
      <glyph glyph-name="uni0155" unicode="&#x0155;" d="M134 547L243 547L349 695L225 695ZM67 0L174 0L174 291C203 359 278 397 364 385L364 490C277 498 199 460 163 401L163 480L67 480Z"  horiz-adv-x="377" vert-adv-y="1000"  />

      
      <glyph glyph-name="uni0159" unicode="&#x0159;" d="M164 548L260 548L391 698L281 698L212 619L143 698L33 698ZM67 0L174 0L174 291C203 359 278 397 364 385L364 490C277 498 199 460 163 401L163 480L67 480Z"  horiz-adv-x="377" vert-adv-y="1000"  />

      
      <glyph glyph-name="uni0157" unicode="&#x0157;" d="M67 0L174 0L174 291C203 359 278 397 364 385L364 490C277 498 199 460 163 401L163 480L67 480ZM42-246L132-246L173-47L70-47Z"  horiz-adv-x="377" vert-adv-y="1000"  />

      
      <glyph glyph-name="uni73" unicode="&#x73;" d="M233-13C343-13 441 22 441 128C441 303 152 260 152 353C152 392 198 405 240 405C298 405 366 385 406 358L406 452C360 476 299 493 233 493C138 493 42 455 42 350C42 178 332 215 332 126C332 87 288 77 228 77C169 77 95 95 45 128L45 33C92 4 163-13 233-13Z"  horiz-adv-x="472" vert-adv-y="1000"  />

      
      <glyph glyph-name="uni015B" unicode="&#x015B;" d="M154 547L263 547L369 695L245 695ZM233-13C343-13 441 22 441 128C441 303 152 260 152 353C152 392 198 405 240 405C298 405 366 385 406 358L406 452C360 476 299 493 233 493C138 493 42 455 42 350C42 178 332 215 332 126C332 87 288 77 228 77C169 77 95 95 45 128L45 33C92 4 163-13 233-13Z"  horiz-adv-x="472" vert-adv-y="1000"  />

      
      <glyph glyph-name="uni0161" unicode="&#x0161;" d="M184 548L280 548L411 698L301 698L232 619L163 698L53 698ZM233-13C343-13 441 22 441 128C441 303 152 260 152 353C152 392 198 405 240 405C298 405 366 385 406 358L406 452C360 476 299 493 233 493C138 493 42 455 42 350C42 178 332 215 332 126C332 87 288 77 228 77C169 77 95 95 45 128L45 33C92 4 163-13 233-13Z"  horiz-adv-x="472" vert-adv-y="1000"  />

      
      <glyph glyph-name="uni015F" unicode="&#x015F;" d="M239-233C314-233 378-203 377-136C376-84 341-54 277-53L288-9C374 1 441 40 441 128C441 303 152 260 152 353C152 392 198 405 240 405C298 405 366 385 406 358L406 452C360 476 299 493 233 493C138 493 42 455 42 350C42 178 332 215 332 126C332 87 288 77 228 77C169 77 95 95 45 128L45 33C86 8 145-8 206-12L185-101C236-93 292-99 292-126C292-147 267-159 224-159C192-159 161-151 139-138L139-214C169-227 200-233 239-233Z"  horiz-adv-x="472" vert-adv-y="1000"  />

      
      <glyph glyph-name="uni0219" unicode="&#x0219;" d="M233-13C343-13 441 22 441 128C441 303 152 260 152 353C152 392 198 405 240 405C298 405 366 385 406 358L406 452C360 476 299 493 233 493C138 493 42 455 42 350C42 178 332 215 332 126C332 87 288 77 228 77C169 77 95 95 45 128L45 33C92 4 163-13 233-13ZM166-246L256-246L297-47L194-47Z"  horiz-adv-x="472" vert-adv-y="1000"  />

      
      <glyph glyph-name="unidf" unicode="&#xdf;" d="M365-13C463-13 564 35 564 145C564 270 410 320 410 385C410 435 485 476 485 563C485 630 427 714 286 713C150 712 67 634 67 494L67 0L174 0L174 516C174 586 220 625 286 625C345 625 381 595 381 548C381 468 309 439 309 368C309 292 455 234 455 154C455 97 402 75 344 75C314 75 277 83 243 99L243 11C279-4 324-13 365-13Z"  horiz-adv-x="592" vert-adv-y="1000"  />

      
      <glyph glyph-name="uni74" unicode="&#x74;" d="M266-12C313-12 359-4 395 9L395 101C365 89 333 82 298 82C236 82 207 103 207 166L207 386L381 386L381 480L207 480L207 651L101 625L101 480L15 480L15 386L101 386L101 146C101 34 173-12 266-12Z"  horiz-adv-x="414" vert-adv-y="1000"  />

      
      <glyph glyph-name="uni0167" unicode="&#x0167;" d="M267-12C313-12 360-3 397 9L397 100C366 88 334 81 299 81C237 81 208 103 208 165L208 220L349 220L349 296L208 296L208 389L382 389L382 480L208 480L208 651L102 625L102 480L16 480L16 389L102 389L102 296L53 296L53 220L102 220L102 146C102 34 174-12 267-12Z"  horiz-adv-x="415" vert-adv-y="1000"  />

      
      <glyph glyph-name="uni0165" unicode="&#x0165;" d="M277 551L362 551L392 736L294 736ZM266-12C313-12 359-4 395 9L395 101C365 89 333 82 298 82C236 82 207 103 207 166L207 386L381 386L381 480L207 480L207 651L101 625L101 480L15 480L15 386L101 386L101 146C101 34 173-12 266-12Z"  horiz-adv-x="317" vert-adv-y="1000"  />

      
      <glyph glyph-name="uni0163" unicode="&#x0163;" d="M266-12C313-12 359-4 395 9L395 101C365 89 333 82 298 82C236 82 207 103 207 166L207 386L381 386L381 480L207 480L207 651L101 625L101 480L15 480L15 386L101 386L101 146C101 34 173-12 266-12ZM174-246L264-246L305-47L202-47Z"  horiz-adv-x="414" vert-adv-y="1000"  />

      
      <glyph glyph-name="uni75" unicode="&#x75;" d="M259-13C332-13 392 24 426 66L426 0L521 0L521 480L414 480L414 162C388 123 342 82 281 82C209 82 168 119 168 197L168 480L61 480L61 183C61 69 132-13 259-13Z"  horiz-adv-x="589" vert-adv-y="1000"  />

      
      <glyph glyph-name="unifa" unicode="&#xfa;" d="M217 547L326 547L432 695L308 695ZM259-13C332-13 392 24 426 66L426 0L521 0L521 480L414 480L414 162C388 123 342 82 281 82C209 82 168 119 168 197L168 480L61 480L61 183C61 69 132-13 259-13Z"  horiz-adv-x="589" vert-adv-y="1000"  />

      
      <glyph glyph-name="unifb" unicode="&#xfb;" d="M119 545L229 545L295 621L361 545L471 545L343 695L247 695ZM259-13C332-13 392 24 426 66L426 0L521 0L521 480L414 480L414 162C388 123 342 82 281 82C209 82 168 119 168 197L168 480L61 480L61 183C61 69 132-13 259-13Z"  horiz-adv-x="589" vert-adv-y="1000"  />

      
      <glyph glyph-name="unifc" unicode="&#xfc;" d="M189 551C224 551 253 580 253 615C253 650 224 679 189 679C154 679 125 650 125 615C125 580 154 551 189 551ZM396 551C431 551 460 580 460 615C460 650 431 679 396 679C361 679 332 650 332 615C332 580 361 551 396 551ZM259-13C332-13 392 24 426 66L426 0L521 0L521 480L414 480L414 162C388 123 342 82 281 82C209 82 168 119 168 197L168 480L61 480L61 183C61 69 132-13 259-13Z"  horiz-adv-x="589" vert-adv-y="1000"  />

      
      <glyph glyph-name="unif9" unicode="&#xf9;" d="M261 547L370 547L279 695L155 695ZM259-13C332-13 392 24 426 66L426 0L521 0L521 480L414 480L414 162C388 123 342 82 281 82C209 82 168 119 168 197L168 480L61 480L61 183C61 69 132-13 259-13Z"  horiz-adv-x="589" vert-adv-y="1000"  />

      
      <glyph glyph-name="uni0171" unicode="&#x0171;" d="M152 550L257 550L334 700L223 700ZM319 550L424 550L500 700L389 700ZM259-13C332-13 392 24 426 66L426 0L521 0L521 480L414 480L414 162C388 123 342 82 281 82C209 82 168 119 168 197L168 480L61 480L61 183C61 69 132-13 259-13Z"  horiz-adv-x="589" vert-adv-y="1000"  />

      
      <glyph glyph-name="uni016B" unicode="&#x016B;" d="M137 556L449 556L449 646L137 646ZM259-13C332-13 392 24 426 66L426 0L521 0L521 480L414 480L414 162C388 123 342 82 281 82C209 82 168 119 168 197L168 480L61 480L61 183C61 69 132-13 259-13Z"  horiz-adv-x="589" vert-adv-y="1000"  />

      
      <glyph glyph-name="uni021B" unicode="&#x021B;" d="M266-12C313-12 359-4 395 9L395 101C365 89 333 82 298 82C236 82 207 103 207 166L207 386L381 386L381 480L207 480L207 651L101 625L101 480L15 480L15 386L101 386L101 146C101 34 173-12 266-12ZM174-246L264-246L305-47L202-47Z"  horiz-adv-x="414" vert-adv-y="1000"  />

      
      <glyph glyph-name="uni0173" unicode="&#x0173;" d="M521 0L521 480L414 480L414 162C388 123 342 82 281 82C209 82 168 119 168 197L168 480L61 480L61 183C61 69 132-13 259-13C332-13 392 24 426 66L426 7C367-42 342-94 342-139C341-191 377-233 447-233C475-233 499-228 521-217L521-140C508-147 494-150 479-150C454-150 439-136 440-113C439-81 468-36 521 0Z"  horiz-adv-x="589" vert-adv-y="1000"  />

      
      <glyph glyph-name="uni016F" unicode="&#x016F;" d="M292 520C355 520 412 563 412 635C412 706 355 749 292 749C229 749 172 706 172 635C172 563 229 520 292 520ZM292 585C265 585 243 604 243 635C243 664 265 684 292 684C319 684 341 664 341 635C341 604 319 585 292 585ZM259-13C332-13 392 24 426 66L426 0L521 0L521 480L414 480L414 162C388 123 342 82 281 82C209 82 168 119 168 197L168 480L61 480L61 183C61 69 132-13 259-13Z"  horiz-adv-x="589" vert-adv-y="1000"  />

      
      <glyph glyph-name="uni76" unicode="&#x76;" d="M217 0L330 0L535 480L419 480L273 116L128 480L12 480Z"  horiz-adv-x="547" vert-adv-y="1000"  />

      
      <glyph glyph-name="uni77" unicode="&#x77;" d="M175 0L290 0L403 344L517 0L632 0L792 480L678 480L571 117L453 480L354 480L236 117L129 480L15 480Z"  horiz-adv-x="807" vert-adv-y="1000"  />

      
      <glyph glyph-name="uni1E83" unicode="&#x1E83;" d="M327 547L436 547L542 695L418 695ZM175 0L290 0L403 344L517 0L632 0L792 480L678 480L571 117L453 480L354 480L236 117L129 480L15 480Z"  horiz-adv-x="807" vert-adv-y="1000"  />

      
      <glyph glyph-name="uni0175" unicode="&#x0175;" d="M229 545L339 545L405 621L471 545L581 545L453 695L357 695ZM175 0L290 0L403 344L517 0L632 0L792 480L678 480L571 117L453 480L354 480L236 117L129 480L15 480Z"  horiz-adv-x="807" vert-adv-y="1000"  />

      
      <glyph glyph-name="uni1E85" unicode="&#x1E85;" d="M299 551C334 551 363 580 363 615C363 650 334 679 299 679C264 679 235 650 235 615C235 580 264 551 299 551ZM506 551C542 551 570 580 570 615C570 650 542 679 506 679C471 679 442 650 442 615C442 580 471 551 506 551ZM175 0L290 0L403 344L517 0L632 0L792 480L678 480L571 117L453 480L354 480L236 117L129 480L15 480Z"  horiz-adv-x="807" vert-adv-y="1000"  />

      
      <glyph glyph-name="uni1E81" unicode="&#x1E81;" d="M370 547L479 547L388 695L264 695ZM175 0L290 0L403 344L517 0L632 0L792 480L678 480L571 117L453 480L354 480L236 117L129 480L15 480Z"  horiz-adv-x="807" vert-adv-y="1000"  />

      
      <glyph glyph-name="uni78" unicode="&#x78;" d="M7 0L129 0L254 170L379 0L501 0L316 245L491 480L369 480L254 318L139 480L17 480L192 245Z"  horiz-adv-x="508" vert-adv-y="1000"  />

      
      <glyph glyph-name="uni79" unicode="&#x79;" d="M119-232C193-232 260-190 312-65L537 480L425 480L282 122L121 480L7 480L234-4L221-37C192-106 155-140 105-140C89-140 72-138 56-133L56-224C77-229 98-232 119-232Z"  horiz-adv-x="550" vert-adv-y="1000"  />

      
      <glyph glyph-name="unifd" unicode="&#xfd;" d="M190 547L299 547L405 695L281 695ZM119-232C193-232 260-190 312-65L537 480L425 480L282 122L121 480L7 480L234-4L221-37C192-106 155-140 105-140C89-140 72-138 56-133L56-224C77-229 98-232 119-232Z"  horiz-adv-x="550" vert-adv-y="1000"  />

      
      <glyph glyph-name="uni0177" unicode="&#x0177;" d="M92 545L202 545L268 621L334 545L444 545L316 695L220 695ZM119-232C193-232 260-190 312-65L537 480L425 480L282 122L121 480L7 480L234-4L221-37C192-106 155-140 105-140C89-140 72-138 56-133L56-224C77-229 98-232 119-232Z"  horiz-adv-x="550" vert-adv-y="1000"  />

      
      <glyph glyph-name="uniff" unicode="&#xff;" d="M162 551C197 551 226 580 226 615C226 650 197 679 162 679C127 679 98 650 98 615C98 580 127 551 162 551ZM369 551C404 551 433 580 433 615C433 650 404 679 369 679C334 679 305 650 305 615C305 580 334 551 369 551ZM119-232C193-232 260-190 312-65L537 480L425 480L282 122L121 480L7 480L234-4L221-37C192-106 155-140 105-140C89-140 72-138 56-133L56-224C77-229 98-232 119-232Z"  horiz-adv-x="550" vert-adv-y="1000"  />

      
      <glyph glyph-name="uni1EF3" unicode="&#x1EF3;" d="M234 547L343 547L252 695L128 695ZM119-232C193-232 260-190 312-65L537 480L425 480L282 122L121 480L7 480L234-4L221-37C192-106 155-140 105-140C89-140 72-138 56-133L56-224C77-229 98-232 119-232Z"  horiz-adv-x="550" vert-adv-y="1000"  />

      
      <glyph glyph-name="uni7a" unicode="&#x7a;" d="M34 0L440 0L440 91L167 91L423 400L423 480L46 480L46 389L290 389L34 80Z"  horiz-adv-x="472" vert-adv-y="1000"  />

      
      <glyph glyph-name="uni017A" unicode="&#x017A;" d="M164 547L273 547L379 695L255 695ZM34 0L440 0L440 91L167 91L423 400L423 480L46 480L46 389L290 389L34 80Z"  horiz-adv-x="472" vert-adv-y="1000"  />

      
      <glyph glyph-name="uni017E" unicode="&#x017E;" d="M194 548L290 548L421 698L311 698L242 619L173 698L63 698ZM34 0L440 0L440 91L167 91L423 400L423 480L46 480L46 389L290 389L34 80Z"  horiz-adv-x="472" vert-adv-y="1000"  />

      
      <glyph glyph-name="uni017C" unicode="&#x017C;" d="M240 541C278 541 310 563 310 610C310 655 278 677 240 677C203 677 170 655 170 610C170 563 203 541 240 541ZM34 0L440 0L440 91L167 91L423 400L423 480L46 480L46 389L290 389L34 80Z"  horiz-adv-x="472" vert-adv-y="1000"  />

      
      <glyph glyph-name="uni0410" unicode="&#x0410;" d="M426 700L301 700L5 0L126 0L188 151L539 151L602 0L722 0ZM228 251L350 550C355 561 359 571 364 587C368 571 372 561 377 550L500 251Z"  horiz-adv-x="728" vert-adv-y="1000"  />

      
      <glyph glyph-name="uni0411" unicode="&#x0411;" d="M84 0L370 0C503 0 639 41 639 213C639 386 503 428 370 428L199 428L199 595L583 595L583 700L84 700ZM199 104L199 324L372 324C447 324 522 310 522 213C522 117 448 104 372 104Z"  horiz-adv-x="670" vert-adv-y="1000"  />

      
      <glyph glyph-name="uni0412" unicode="&#x0412;" d="M84 0L382 0C493 0 648 35 648 194C648 303 574 351 510 369C569 387 620 438 620 523C620 642 526 700 380 700L84 700ZM199 409L199 601L370 601C454 601 505 575 505 505C505 437 452 409 386 409ZM198 100L198 313L388 313C452 313 533 299 533 206C533 109 450 100 372 100Z"  horiz-adv-x="689" vert-adv-y="1000"  />

      
      <glyph glyph-name="uni0413" unicode="&#x0413;" d="M84 0L199 0L199 595L558 595L558 700L84 700Z"  horiz-adv-x="572" vert-adv-y="1000"  />

      
      <glyph glyph-name="uni0403" unicode="&#x0403;" d="M247 767L355 767L461 915L337 915ZM84 0L199 0L199 595L558 595L558 700L84 700Z"  horiz-adv-x="572" vert-adv-y="1000"  />

      
      <glyph glyph-name="uni0490" unicode="&#x0490;" d="M84 0L199 0L199 595L558 595L558 849L449 849L448 700L84 700Z"  horiz-adv-x="572" vert-adv-y="1000"  />

      
      <glyph glyph-name="uni0414" unicode="&#x0414;" d="M20-159L124-159L124 0L652 0L652-159L755-159L755 104L667 104L667 700L216 700C216 494 193 266 103 104L20 104ZM227 104C293 231 316 421 327 595L553 595L553 104Z"  horiz-adv-x="786" vert-adv-y="1000"  />

      
      <glyph glyph-name="uni0415" unicode="&#x0415;" d="M84 0L572 0L572 104L199 104L199 301L536 301L536 405L199 405L199 596L566 596L566 700L84 700Z"  horiz-adv-x="619" vert-adv-y="1000"  />

      
      <glyph glyph-name="uni0401" unicode="&#x0401;" d="M264 771C299 771 328 800 328 835C328 870 299 899 264 899C229 899 200 870 200 835C200 800 229 771 264 771ZM471 771C506 771 535 800 535 835C535 870 506 899 471 899C436 899 407 870 407 835C407 800 436 771 471 771ZM84 0L572 0L572 104L199 104L199 301L536 301L536 405L199 405L199 596L566 596L566 700L84 700Z"  horiz-adv-x="618" vert-adv-y="1000"  />

      
      <glyph glyph-name="uni0416" unicode="&#x0416;" d="M5 0L134 0L318 303L424 303L424 0L538 0L538 303L644 303L827 0L956 0L737 359L938 700L809 700L645 408L538 408L538 700L424 700L424 408L317 408L152 700L23 700L224 359Z"  horiz-adv-x="961" vert-adv-y="1000"  />

      
      <glyph glyph-name="uni0417" unicode="&#x0417;" d="M292-13C425-13 574 36 574 190C574 299 500 352 432 368C497 390 545 444 545 525C545 652 433 713 278 713C199 713 125 700 50 668L50 556C129 594 197 608 268 607C366 607 430 581 430 509C430 446 374 414 289 414L149 414L149 310L298 310C379 310 458 288 458 204C458 115 369 93 283 93C201 92 122 103 38 143L38 32C123 0 203-13 292-13Z"  horiz-adv-x="616" vert-adv-y="1000"  />

      
      <glyph glyph-name="uni0418" unicode="&#x0418;" d="M682 0L682 700L575 700L198 188C199 212 199 239 199 265L199 700L85 700L85 0L192 0L569 512C568 488 568 461 568 436L568 0Z"  horiz-adv-x="766" vert-adv-y="1000"  />

      
      <glyph glyph-name="uni0419" unicode="&#x0419;" d="M383 760C438 760 486 772 530 803L530 895C479 862 434 852 383 852C331 852 286 862 235 895L235 803C279 772 327 760 383 760ZM682 0L682 700L575 700L198 188C199 212 199 239 199 265L199 700L85 700L85 0L192 0L569 512C568 488 568 461 568 436L568 0Z"  horiz-adv-x="766" vert-adv-y="1000"  />

      
      <glyph glyph-name="uni040D" unicode="&#x040D;" d="M352 767L461 767L370 915L246 915ZM682 0L682 700L575 700L198 188C199 212 199 239 199 265L199 700L85 700L85 0L192 0L569 512C568 488 568 461 568 436L568 0Z"  horiz-adv-x="766" vert-adv-y="1000"  />

      
      <glyph glyph-name="uni041A" unicode="&#x041A;" d="M84 0L199 0L199 303L310 303L549 0L678 0L402 362L660 700L532 700L308 408L199 408L199 700L84 700Z"  horiz-adv-x="677" vert-adv-y="1000"  />

      
      <glyph glyph-name="uni040C" unicode="&#x040C;" d="M263 767L371 767L477 915L353 915ZM84 0L199 0L199 303L310 303L549 0L678 0L402 362L660 700L532 700L308 408L199 408L199 700L84 700Z"  horiz-adv-x="677" vert-adv-y="1000"  />

      
      <glyph glyph-name="uni041B" unicode="&#x041B;" d="M74-10C263-9 292 285 318 595L550 595L550 0L664 0L664 700L211 700C189 420 176 104 53 100C32 100 19 102 5 107L5 2C30-6 53-10 74-10Z"  horiz-adv-x="748" vert-adv-y="1000"  />

      
      <glyph glyph-name="uni041C" unicode="&#x041C;" d="M84 0L199 0L199 491L419 158L487 158L708 490L708 0L822 0L822 700L720 700L453 299L187 700L84 700Z"  horiz-adv-x="907" vert-adv-y="1000"  />

      
      <glyph glyph-name="uni041D" unicode="&#x041D;" d="M84 0L199 0L199 298L567 298L567 0L681 0L681 700L567 700L567 403L199 403L199 700L84 700Z"  horiz-adv-x="766" vert-adv-y="1000"  />

      
      <glyph glyph-name="uni041E" unicode="&#x041E;" d="M410-13C656-13 778 165 778 350C778 535 656 713 410 713C163 713 41 535 41 350C41 165 163-13 410-13ZM410 94C240 94 157 216 157 350C157 484 240 606 410 606C579 606 662 484 662 350C662 216 579 94 410 94Z"  horiz-adv-x="819" vert-adv-y="1000"  />

      
      <glyph glyph-name="uni041F" unicode="&#x041F;" d="M84 0L199 0L199 595L559 595L559 0L673 0L673 700L84 700Z"  horiz-adv-x="758" vert-adv-y="1000"  />

      
      <glyph glyph-name="uni0420" unicode="&#x0420;" d="M84 0L199 0L199 240L335 240C500 240 634 292 634 470C634 648 500 700 335 700L84 700ZM199 344L199 596L340 596C437 596 518 572 518 470C518 368 437 344 340 344Z"  horiz-adv-x="663" vert-adv-y="1000"  />

      
      <glyph glyph-name="uni0421" unicode="&#x0421;" d="M413-13C488-13 557 4 616 33L616 146C571 111 505 92 433 92C299 92 157 172 158 344C158 529 297 608 432 608C497 608 563 590 611 556L611 667C552 697 483 713 412 713C228 713 42 593 41 344C40 105 232-13 413-13Z"  horiz-adv-x="654" vert-adv-y="1000"  />

      
      <glyph glyph-name="uni0422" unicode="&#x0422;" d="M245 0L360 0L360 595L591 595L591 700L14 700L14 595L245 595Z"  horiz-adv-x="605" vert-adv-y="1000"  />

      
      <glyph glyph-name="uni0423" unicode="&#x0423;" d="M171-13C254-13 331 23 396 159L650 700L526 700L347 300L132 700L5 700L289 195L278 169C243 101 200 91 152 91C124 91 95 96 71 104L71 3C104-7 139-13 171-13Z"  horiz-adv-x="648" vert-adv-y="1000"  />

      
      <glyph glyph-name="uni040E" unicode="&#x040E;" d="M327 760C382 760 430 772 474 803L474 895C423 862 378 852 327 852C275 852 230 862 179 895L179 803C224 772 271 760 327 760ZM171-13C254-13 331 23 396 159L650 700L526 700L347 300L132 700L5 700L289 195L278 169C243 101 200 91 152 91C124 91 95 96 71 104L71 3C104-7 139-13 171-13Z"  horiz-adv-x="648" vert-adv-y="1000"  />

      
      <glyph glyph-name="uni0424" unicode="&#x0424;" d="M380-38L491-38L491 52C705 60 845 166 845 350C845 534 705 640 491 648L491 738L380 738L380 648C165 641 25 534 25 350C25 166 165 59 380 52ZM380 150C214 159 140 239 140 350C140 462 214 541 380 550ZM491 150L491 550C656 541 730 461 730 350C730 239 656 159 491 150Z"  horiz-adv-x="870" vert-adv-y="1000"  />

      
      <glyph glyph-name="uni0425" unicode="&#x0425;" d="M-2 0L133 0L330 276L527 0L662 0L401 361L647 700L512 700L330 447L148 700L13 700L260 361Z"  horiz-adv-x="660" vert-adv-y="1000"  />

      
      <glyph glyph-name="uni0427" unicode="&#x0427;" d="M492 0L606 0L606 700L492 700L492 369C437 347 381 337 328 337C226 338 157 375 157 470L157 700L43 700L43 470C43 310 142 232 300 231C360 231 425 241 492 263Z"  horiz-adv-x="690" vert-adv-y="1000"  />

      
      <glyph glyph-name="uni0426" unicode="&#x0426;" d="M658-159L762-159L762 106L674 106L674 700L560 700L560 106L199 106L199 700L84 700L84 0L659 0Z"  horiz-adv-x="793" vert-adv-y="1000"  />

      
      <glyph glyph-name="uni0428" unicode="&#x0428;" d="M84 0L972 0L972 700L858 700L858 106L585 106L585 700L471 700L471 106L199 106L199 700L84 700Z"  horiz-adv-x="1056" vert-adv-y="1000"  />

      
      <glyph glyph-name="uni0429" unicode="&#x0429;" d="M956-159L1060-159L1060 106L972 106L972 700L858 700L858 106L585 106L585 700L471 700L471 106L199 106L199 700L84 700L84 0L957 0Z"  horiz-adv-x="1091" vert-adv-y="1000"  />

      
      <glyph glyph-name="uni040F" unicode="&#x040F;" d="M674 700L560 700L560 106L199 106L199 700L84 700L84 0L328 0L328-159L432-159L432 0L674 0Z"  horiz-adv-x="759" vert-adv-y="1000"  />

      
      <glyph glyph-name="uni042C" unicode="&#x042C;" d="M84 0L335 0C500 0 634 53 634 230C634 408 500 459 335 460L199 460L199 700L84 700ZM199 104L199 356L340 356C437 356 518 332 518 230C518 128 437 104 340 104Z"  horiz-adv-x="663" vert-adv-y="1000"  />

      
      <glyph glyph-name="uni042A" unicode="&#x042A;" d="M188 0L438 0C603 0 737 53 737 230C737 408 603 459 438 460L302 460L302 700L15 700L15 595L188 595ZM302 104L302 356L444 356C540 356 621 332 621 230C621 128 541 104 444 104Z"  horiz-adv-x="767" vert-adv-y="1000"  />

      
      <glyph glyph-name="uni042B" unicode="&#x042B;" d="M84 0L335 0C500 0 634 53 634 230C634 408 500 459 335 460L199 460L199 700L84 700ZM701 0L816 0L816 700L701 700ZM199 104L199 356L340 356C437 356 518 332 518 230C518 128 437 104 340 104Z"  horiz-adv-x="900" vert-adv-y="1000"  />

      
      <glyph glyph-name="uni0409" unicode="&#x0409;" d="M773 435L641 435L641 700L211 700C189 420 176 104 53 100C32 100 19 102 5 107L5 2C30-6 53-10 74-10C263-9 292 285 318 595L526 595L526 0L774 0C939 0 1065 57 1065 222C1065 383 956 435 773 435ZM779 104L641 104L641 331L771 331C885 331 948 312 948 220C948 127 879 104 779 104Z"  horiz-adv-x="1094" vert-adv-y="1000"  />

      
      <glyph glyph-name="uni040A" unicode="&#x040A;" d="M795 435L662 435L662 700L548 700L548 435L199 435L199 700L84 700L84 0L199 0L199 331L548 331L548 0L795 0C960 0 1086 57 1086 222C1086 383 977 435 795 435ZM801 104L662 104L662 331L792 331C906 331 970 312 970 220C970 127 900 104 801 104Z"  horiz-adv-x="1116" vert-adv-y="1000"  />

      
      <glyph glyph-name="uni0405" unicode="&#x0405;" d="M297-13C436-14 562 37 562 184C562 434 161 373 161 524C161 584 215 609 300 609C375 610 453 589 510 551L510 660C453 693 372 713 292 713C159 713 44 651 44 522C44 274 445 340 445 178C445 112 378 91 288 91C208 91 125 111 48 160L48 48C118 9 203-13 297-13Z"  horiz-adv-x="594" vert-adv-y="1000"  />

      
      <glyph glyph-name="uni0404" unicode="&#x0404;" d="M414-13C483-13 553 4 611 33L611 148C562 110 496 93 430 93C301 93 173 146 157 299L499 299L499 401L158 401C178 550 301 607 428 607C492 607 562 591 611 556L611 667C552 697 482 713 411 713C228 713 41 597 41 342C41 94 229-13 414-13Z"  horiz-adv-x="654" vert-adv-y="1000"  />

      
      <glyph glyph-name="uni042D" unicode="&#x042D;" d="M242-13C426-13 615 94 615 342C615 597 427 713 245 713C174 713 103 697 44 667L44 556C93 591 164 607 228 607C355 607 477 550 497 401L156 401L156 299L499 299C483 146 354 93 225 93C159 93 94 110 44 148L44 33C103 4 172-13 242-13Z"  horiz-adv-x="656" vert-adv-y="1000"  />

      
      <glyph glyph-name="uni0406" unicode="&#x0406;" d="M84 0L199 0L199 700L84 700Z"  horiz-adv-x="283" vert-adv-y="1000"  />

      
      <glyph glyph-name="uni0407" unicode="&#x0407;" d="M38 771C73 771 102 800 102 835C102 870 73 899 38 899C3 899-26 870-26 835C-26 800 3 771 38 771ZM246 771C281 771 310 800 310 835C310 870 281 899 246 899C211 899 182 870 182 835C182 800 211 771 246 771ZM84 0L199 0L199 700L84 700Z"  horiz-adv-x="283" vert-adv-y="1000"  />

      
      <glyph glyph-name="uni0408" unicode="&#x0408;" d="M197-12C328-12 436 49 436 204L436 700L125 700L125 595L322 595L322 214C322 123 256 96 172 96C115 96 58 111 16 138L16 28C61 4 127-12 197-12Z"  horiz-adv-x="515" vert-adv-y="1000"  />

      
      <glyph glyph-name="uni040B" unicode="&#x040B;" d="M225 0L340 0L340 337C368 364 416 391 473 391C536 391 581 356 581 276L581 0L695 0L695 294C695 421 617 491 497 491C429 491 374 466 340 440L340 595L591 595L591 700L14 700L14 595L225 595Z"  horiz-adv-x="763" vert-adv-y="1000"  />

      
      <glyph glyph-name="uni042E" unicode="&#x042E;" d="M688-13C934-13 1057 165 1057 350C1057 535 934 713 688 713C465 713 345 566 325 403L199 403L199 700L84 700L84 0L199 0L199 297L325 297C345 135 465-13 688-13ZM688 94C519 94 436 216 436 350C436 484 519 606 688 606C857 606 940 484 940 350C940 216 857 94 688 94Z"  horiz-adv-x="1097" vert-adv-y="1000"  />

      
      <glyph glyph-name="uni042F" unicode="&#x042F;" d="M332 700C188 700 56 633 56 472C56 365 125 290 223 261L22 0L157 0L345 248L491 248L491 0L606 0L606 700ZM491 349L331 349C242 349 174 386 174 472C174 559 242 596 331 596L491 596Z"  horiz-adv-x="690" vert-adv-y="1000"  />

      
      <glyph glyph-name="uni0402" unicode="&#x0402;" d="M497 491C429 491 375 467 340 440L340 595L591 595L591 700L14 700L14 595L225 595L225 0L340 0L340 336C369 364 416 390 473 390C536 390 581 355 581 275L581 161C581 105 548 88 509 88C492 88 474 91 458 98L458 1C479-8 506-13 538-13C618-13 695 22 695 141L695 294C695 421 617 491 497 491Z"  horiz-adv-x="763" vert-adv-y="1000"  />

      
      <glyph glyph-name="uni0430" unicode="&#x0430;" d="M199-13C274-13 333 10 380 49L381 46C399 9 434-7 476-7C500-7 524-3 544 5L544 82C534 79 522 76 512 76C492 76 476 84 476 111L476 283C476 428 390 493 255 493C178 493 109 474 71 461L71 363C114 382 173 400 243 400C325 400 369 358 369 298L369 281C332 289 285 295 245 295C145 295 31 257 31 134C31 35 112-13 199-13ZM231 70C183 70 141 94 141 141C141 201 205 220 266 220C300 220 341 214 369 208L369 126C332 89 282 70 231 70Z"  horiz-adv-x="551" vert-adv-y="1000"  />

      
      <glyph glyph-name="uni0431" unicode="&#x0431;" d="M297-13C442-13 546 71 546 223C546 368 443 456 321 456C247 456 186 420 154 372C168 427 194 489 256 524C358 581 437 558 504 609L504 713C435 646 330 683 192 598C106 544 45 438 45 272C45 79 154-13 297-13ZM295 79C202 79 153 147 153 221C153 288 203 363 295 363C391 363 438 295 438 221C438 147 391 79 295 79Z"  horiz-adv-x="584" vert-adv-y="1000"  />

      
      <glyph glyph-name="uni0432" unicode="&#x0432;" d="M67 0L349 0C460 0 507 58 507 132C507 191 470 229 425 243C466 261 493 299 493 352C493 427 438 480 341 480L67 480ZM174 280L174 399L317 399C350 399 385 385 385 338C385 295 355 280 317 280ZM174 81L174 204L326 204C363 204 400 191 400 142C400 96 367 81 324 81Z"  horiz-adv-x="549" vert-adv-y="1000"  />

      
      <glyph glyph-name="uni0433" unicode="&#x0433;" d="M67 0L174 0L174 386L425 386L425 480L67 480Z"  horiz-adv-x="441" vert-adv-y="1000"  />

      
      <glyph glyph-name="uni0453" unicode="&#x0453;" d="M173 547L281 547L387 695L263 695ZM67 0L174 0L174 386L425 386L425 480L67 480Z"  horiz-adv-x="441" vert-adv-y="1000"  />

      
      <glyph glyph-name="uni0491" unicode="&#x0491;" d="M67 0L174 0L174 386L425 386L425 606L324 606L324 480L67 480Z"  horiz-adv-x="441" vert-adv-y="1000"  />

      
      <glyph glyph-name="uni0434" unicode="&#x0434;" d="M24-129L125-129L125 0L510 0L510-129L611-129L611 88L541 88L541 480L165 480C168 313 148 191 89 88L24 88ZM202 88C242 173 262 263 266 392L434 392L434 88Z"  horiz-adv-x="641" vert-adv-y="1000"  />

      
      <glyph glyph-name="uni0435" unicode="&#x0435;" d="M309-13C375-13 437-1 481 20L481 112C440 92 386 78 329 78C240 78 157 114 144 200L506 200C537 339 471 493 280 493C168 493 37 414 37 240C37 71 162-13 309-13ZM144 280C148 361 213 404 284 404C390 404 416 322 410 280Z"  horiz-adv-x="548" vert-adv-y="1000"  />

      
      <glyph glyph-name="uni0451" unicode="&#x0451;" d="M212 551C247 551 275 580 275 615C275 650 247 679 212 679C176 679 148 650 148 615C148 580 176 551 212 551ZM419 551C454 551 483 580 483 615C483 650 454 679 419 679C384 679 355 650 355 615C355 580 384 551 419 551ZM309-13C375-13 437-1 481 20L481 112C440 92 386 78 329 78C240 78 157 114 144 200L506 200C537 339 471 493 280 493C168 493 37 414 37 240C37 71 162-13 309-13ZM144 280C148 361 213 404 284 404C390 404 416 322 410 280Z"  horiz-adv-x="546" vert-adv-y="1000"  />

      
      <glyph glyph-name="uni0436" unicode="&#x0436;" d="M5 0L122 0L265 191L331 191L331 0L438 0L438 191L505 191L648 0L765 0L585 241L746 480L630 480L499 282L438 282L438 480L331 480L331 282L271 282L140 480L23 480L184 241Z"  horiz-adv-x="770" vert-adv-y="1000"  />

      
      <glyph glyph-name="uni0437" unicode="&#x0437;" d="M217-13C365-13 442 47 442 131C442 191 402 231 347 246C397 259 432 296 432 353C432 430 371 494 222 494C157 494 92 478 46 456L46 364C87 386 153 403 209 403C278 403 324 382 324 339C324 299 285 285 234 285L137 285L137 202L234 202C282 202 334 195 334 144C334 91 274 78 203 78C145 78 76 96 37 118L37 26C82 3 146-13 217-13Z"  horiz-adv-x="482" vert-adv-y="1000"  />

      
      <glyph glyph-name="uni0438" unicode="&#x0438;" d="M67 0L159 0L417 314L417 0L524 0L524 480L431 480L174 166L174 480L67 480Z"  horiz-adv-x="591" vert-adv-y="1000"  />

      
      <glyph glyph-name="uni0439" unicode="&#x0439;" d="M295 547C350 547 397 558 441 588L441 675C390 643 345 633 295 633C245 633 201 643 149 675L149 588C194 558 241 547 295 547ZM67 0L159 0L417 314L417 0L524 0L524 480L431 480L174 166L174 480L67 480Z"  horiz-adv-x="592" vert-adv-y="1000"  />

      
      <glyph glyph-name="uni045D" unicode="&#x045D;" d="M263 547L372 547L281 695L157 695ZM67 0L159 0L417 314L417 0L524 0L524 480L431 480L174 166L174 480L67 480Z"  horiz-adv-x="591" vert-adv-y="1000"  />

      
      <glyph glyph-name="uni043A" unicode="&#x043A;" d="M67 0L174 0L174 199L251 199L409 0L532 0L339 242L513 480L391 480L253 290L174 290L174 480L67 480Z"  horiz-adv-x="537" vert-adv-y="1000"  />

      
      <glyph glyph-name="uni045C" unicode="&#x045C;" d="M204 547L312 547L418 695L294 695ZM67 0L174 0L174 199L251 199L409 0L532 0L339 242L513 480L391 480L253 290L174 290L174 480L67 480Z"  horiz-adv-x="537" vert-adv-y="1000"  />

      
      <glyph glyph-name="uni043B" unicode="&#x043B;" d="M78-9C206-9 241 157 256 389L418 389L418 0L525 0L525 480L155 480C146 242 123 82 42 82C33 82 22 84 12 88L12 4C36-5 58-9 78-9Z"  horiz-adv-x="592" vert-adv-y="1000"  />

      
      <glyph glyph-name="uni043C" unicode="&#x043C;" d="M67 0L170 0L170 325L306 115L371 115L507 325L507 0L610 0L610 480L502 480L338 227L175 480L67 480Z"  horiz-adv-x="677" vert-adv-y="1000"  />

      
      <glyph glyph-name="uni043D" unicode="&#x043D;" d="M67 0L174 0L174 193L414 193L414 0L521 0L521 480L414 480L414 287L174 287L174 480L67 480Z"  horiz-adv-x="588" vert-adv-y="1000"  />

      
      <glyph glyph-name="uni043E" unicode="&#x043E;" d="M297-13C432-13 557 74 557 240C557 406 432 493 297 493C163 493 37 406 37 240C37 74 163-13 297-13ZM297 85C207 85 145 146 145 240C145 334 207 395 297 395C387 395 449 334 449 240C449 146 387 85 297 85Z"  horiz-adv-x="594" vert-adv-y="1000"  />

      
      <glyph glyph-name="uni043F" unicode="&#x043F;" d="M67 0L174 0L174 386L414 386L414 0L521 0L521 480L67 480Z"  horiz-adv-x="588" vert-adv-y="1000"  />

      
      <glyph glyph-name="uni0440" unicode="&#x0440;" d="M67-220L174-220L174 62C207 24 263-13 347-13C491-13 585 102 585 240C585 378 491 493 347 493C257 493 200 451 163 405L163 480L67 480ZM327 81C253 81 198 129 174 182L174 299C198 351 253 399 327 399C414 399 476 334 476 240C476 146 414 81 327 81Z"  horiz-adv-x="622" vert-adv-y="1000"  />

      
      <glyph glyph-name="uni0441" unicode="&#x0441;" d="M296-13C357-13 409-2 455 20L455 119C417 97 366 82 314 82C229 82 145 131 145 240C145 353 232 398 317 398C365 398 415 383 450 358L450 456C408 481 355 493 302 493C173 493 37 415 37 236C37 65 168-13 296-13Z"  horiz-adv-x="492" vert-adv-y="1000"  />

      
      <glyph glyph-name="uni0442" unicode="&#x0442;" d="M182 0L289 0L289 386L455 386L455 480L16 480L16 386L182 386Z"  horiz-adv-x="471" vert-adv-y="1000"  />

      
      <glyph glyph-name="uni0443" unicode="&#x0443;" d="M119-232C193-232 260-190 312-65L537 480L425 480L282 122L121 480L7 480L234-4L221-37C192-106 155-140 105-140C89-140 72-138 56-133L56-224C77-229 98-232 119-232Z"  horiz-adv-x="550" vert-adv-y="1000"  />

      
      <glyph glyph-name="uni045E" unicode="&#x045E;" d="M280 539C335 539 383 551 427 582L427 674C376 641 331 631 280 631C228 631 183 641 132 674L132 582C177 551 224 539 280 539ZM119-232C193-232 260-190 312-65L537 480L425 480L282 122L121 480L7 480L234-4L221-37C192-106 155-140 105-140C89-140 72-138 56-133L56-224C77-229 98-232 119-232Z"  horiz-adv-x="550" vert-adv-y="1000"  />

      
      <glyph glyph-name="uni0444" unicode="&#x0444;" d="M315-220L419-220L419-13C578-8 698 88 698 240C698 392 578 488 419 493L419 700L315 700L315 493C156 488 36 392 36 240C36 88 156-8 315-13ZM315 78C207 83 143 147 143 240C143 333 207 397 315 402ZM419 78L419 402C527 397 591 333 591 240C591 147 527 83 419 78Z"  horiz-adv-x="734" vert-adv-y="1000"  />

      
      <glyph glyph-name="uni0445" unicode="&#x0445;" d="M7 0L129 0L254 170L379 0L501 0L316 245L491 480L369 480L254 318L139 480L17 480L192 245Z"  horiz-adv-x="508" vert-adv-y="1000"  />

      
      <glyph glyph-name="uni0447" unicode="&#x0447;" d="M357 0L464 0L464 480L357 480L357 248C325 235 294 230 254 230C187 230 144 251 144 321L144 480L37 480L37 312C37 191 117 136 223 136C278 136 316 144 357 159Z"  horiz-adv-x="531" vert-adv-y="1000"  />

      
      <glyph glyph-name="uni0446" unicode="&#x0446;" d="M481-129L582-129L582 92L510 92L510 480L403 480L403 94L174 94L174 480L67 480L67 0L481 0Z"  horiz-adv-x="612" vert-adv-y="1000"  />

      
      <glyph glyph-name="uni0448" unicode="&#x0448;" d="M67 0L749 0L749 480L642 480L642 94L462 94L462 480L355 480L355 94L174 94L174 480L67 480Z"  horiz-adv-x="816" vert-adv-y="1000"  />

      
      <glyph glyph-name="uni0449" unicode="&#x0449;" d="M719-129L820-129L820 92L749 92L749 480L642 480L642 94L462 94L462 480L355 480L355 94L174 94L174 480L67 480L67 0L719 0Z"  horiz-adv-x="851" vert-adv-y="1000"  />

      
      <glyph glyph-name="uni045F" unicode="&#x045F;" d="M238-129L339-129L339 0L510 0L510 480L403 480L403 94L174 94L174 480L67 480L67 0L238 0Z"  horiz-adv-x="577" vert-adv-y="1000"  />

      
      <glyph glyph-name="uni044C" unicode="&#x044C;" d="M67 0L305 0C426 0 495 70 495 160C495 251 426 320 305 320L174 320L174 480L67 480ZM174 85L174 236L285 236C347 236 386 210 386 160C386 111 347 85 285 85Z"  horiz-adv-x="521" vert-adv-y="1000"  />

      
      <glyph glyph-name="uni044A" unicode="&#x044A;" d="M145 0L383 0C504 0 573 70 573 160C573 251 504 320 383 320L252 320L252 480L17 480L17 392L145 392ZM252 85L252 236L362 236C425 236 463 210 463 160C463 111 425 85 362 85Z"  horiz-adv-x="598" vert-adv-y="1000"  />

      
      <glyph glyph-name="uni044B" unicode="&#x044B;" d="M67 0L305 0C426 0 495 70 495 160C495 251 426 320 305 320L174 320L174 480L67 480ZM581 0L688 0L688 480L581 480ZM174 85L174 236L285 236C347 236 386 210 386 160C386 111 347 85 285 85Z"  horiz-adv-x="755" vert-adv-y="1000"  />

      
      <glyph glyph-name="uni0459" unicode="&#x0459;" d="M639 300L514 300L514 480L155 480C146 242 123 82 42 82C33 82 22 84 12 88L12 4C36-5 58-9 78-9C206-9 241 157 256 389L407 389L407 0L639 0C760 0 827 57 827 151C827 243 764 300 639 300ZM622 84L514 84L514 216L623 216C686 216 718 200 718 151C718 102 685 84 622 84Z"  horiz-adv-x="852" vert-adv-y="1000"  />

      
      <glyph glyph-name="uni045A" unicode="&#x045A;" d="M634 300L509 300L509 480L402 480L402 300L174 300L174 480L67 480L67 0L174 0L174 214L402 214L402 0L634 0C755 0 822 57 822 151C822 243 759 300 634 300ZM617 84L509 84L509 216L618 216C681 216 713 200 713 151C713 102 680 84 617 84Z"  horiz-adv-x="847" vert-adv-y="1000"  />

      
      <glyph glyph-name="uni0455" unicode="&#x0455;" d="M231-13C340-13 439 22 439 128C439 303 150 260 150 353C150 392 196 405 238 405C296 405 364 385 404 358L404 452C358 476 297 493 231 493C136 493 40 455 40 350C40 178 330 215 330 126C330 87 286 77 226 77C167 77 93 95 43 128L43 33C90 4 161-13 231-13Z"  horiz-adv-x="471" vert-adv-y="1000"  />

      
      <glyph glyph-name="uni0454" unicode="&#x0454;" d="M291-13C364-13 412 1 466 29L466 122C423 95 367 79 314 79C228 79 156 108 145 196L374 196L374 284L145 284C159 369 235 401 319 401C366 401 421 385 461 358L461 450C415 479 363 493 306 493C173 493 37 416 37 232C37 58 172-13 291-13Z"  horiz-adv-x="504" vert-adv-y="1000"  />

      
      <glyph glyph-name="uni044D" unicode="&#x044D;" d="M213-13C333-13 468 58 468 232C468 416 332 493 198 493C142 493 89 479 44 450L44 358C84 385 138 401 185 401C270 401 346 369 359 284L130 284L130 196L359 196C349 108 276 79 191 79C137 79 82 95 39 122L39 29C93 1 141-13 213-13Z"  horiz-adv-x="505" vert-adv-y="1000"  />

      
      <glyph glyph-name="uni0456" unicode="&#x0456;" d="M126 572C161 572 191 592 191 636C191 678 161 699 126 699C91 699 60 678 60 636C60 592 91 572 126 572ZM72 0L179 0L179 480L72 480Z"  horiz-adv-x="251" vert-adv-y="1000"  />

      
      <glyph glyph-name="uni0457" unicode="&#x0457;" d="M9 551C44 551 73 580 73 615C73 650 44 679 9 679C-26 679-55 650-55 615C-55 580-26 551 9 551ZM217 551C252 551 281 580 281 615C281 650 252 679 217 679C182 679 153 650 153 615C153 580 182 551 217 551ZM60 0L167 0L167 480L60 480Z"  horiz-adv-x="228" vert-adv-y="1000"  />

      
      <glyph glyph-name="uni0458" unicode="&#x0458;" d="M122 572C158 572 188 592 188 636C188 678 158 699 122 699C87 699 56 678 56 636C56 592 87 572 122 572ZM24-233C99-233 176-198 176-79L176 480L69 480L69-61C69-118 34-135-5-135C-22-135-40-132-56-125L-56-219C-35-228-8-233 24-233Z"  horiz-adv-x="248" vert-adv-y="1000"  />

      
      </font>
</defs>
</svg>
